OctagonVariable-Left.ufo
<glyph name="quotedbl" format="2">
  <advance width="222"/>
  <unicode hex="0022"/>
  <outline>
    <contour>
      <point x="30" y="403" type="line"/>
      <point x="102" y="403" type="line"/>
      <point x="102" y="416" type="line"/>
      <point x="30" y="416" type="line"/>
    </contour>
    <contour>
      <point x="41" y="403" type="line"/>
      <point x="56" y="498" type="line"/>
      <point x="47" y="514" type="line"/>
      <point x="30" y="414" type="line"/>
    </contour>
    <contour>
      <point x="90" y="403" type="line"/>
      <point x="102" y="414" type="line"/>
      <point x="60" y="515" type="line"/>
      <point x="51" y="499" type="line"/>
    </contour>
    <contour>
      <point x="30" y="403" type="line"/>
      <point x="44" y="403" type="line"/>
      <point x="44" y="615" type="line"/>
      <point x="30" y="615" type="line"/>
    </contour>
    <contour>
      <point x="47" y="502" type="line"/>
      <point x="61" y="502" type="line"/>
      <point x="61" y="515" type="line"/>
      <point x="47" y="515" type="line"/>
    </contour>
    <contour>
      <point x="88" y="403" type="line"/>
      <point x="102" y="403" type="line"/>
      <point x="102" y="615" type="line"/>
      <point x="88" y="615" type="line"/>
    </contour>
    <contour>
      <point x="48" y="503" type="line"/>
      <point x="56" y="519" type="line"/>
      <point x="41" y="615" type="line"/>
      <point x="30" y="603" type="line"/>
    </contour>
    <contour>
      <point x="32" y="601" type="line"/>
      <point x="102" y="601" type="line"/>
      <point x="102" y="615" type="line"/>
      <point x="32" y="615" type="line"/>
    </contour>
    <contour>
      <point x="60" y="503" type="line"/>
      <point x="101" y="603" type="line"/>
      <point x="90" y="615" type="line"/>
      <point x="51" y="519" type="line"/>
    </contour>
    <contour>
      <point x="120" y="403" type="line"/>
      <point x="192" y="403" type="line"/>
      <point x="192" y="416" type="line"/>
      <point x="120" y="416" type="line"/>
    </contour>
    <contour>
      <point x="131" y="403" type="line"/>
      <point x="146" y="498" type="line"/>
      <point x="137" y="514" type="line"/>
      <point x="120" y="414" type="line"/>
    </contour>
    <contour>
      <point x="180" y="403" type="line"/>
      <point x="192" y="414" type="line"/>
      <point x="150" y="515" type="line"/>
      <point x="141" y="499" type="line"/>
    </contour>
    <contour>
      <point x="120" y="403" type="line"/>
      <point x="134" y="403" type="line"/>
      <point x="134" y="615" type="line"/>
      <point x="120" y="615" type="line"/>
    </contour>
    <contour>
      <point x="137" y="502" type="line"/>
      <point x="151" y="502" type="line"/>
      <point x="151" y="515" type="line"/>
      <point x="137" y="515" type="line"/>
    </contour>
    <contour>
      <point x="178" y="403" type="line"/>
      <point x="192" y="403" type="line"/>
      <point x="192" y="615" type="line"/>
      <point x="178" y="615" type="line"/>
    </contour>
    <contour>
      <point x="139" y="503" type="line"/>
      <point x="146" y="519" type="line"/>
      <point x="131" y="615" type="line"/>
      <point x="120" y="603" type="line"/>
    </contour>
    <contour>
      <point x="122" y="601" type="line"/>
      <point x="192" y="601" type="line"/>
      <point x="192" y="615" type="line"/>
      <point x="122" y="615" type="line"/>
    </contour>
    <contour>
      <point x="150" y="503" type="line"/>
      <point x="191" y="603" type="line"/>
      <point x="180" y="615" type="line"/>
      <point x="141" y="519" type="line"/>
    </contour>
  </outline>
</glyph>
<glyph name="numbersign" format="2">
  <advance width="496"/>
  <unicode hex="0023"/>
  <outline>
    <contour>
      <point x="163" y="422" type="line"/>
      <point x="180" y="422" type="line"/>
      <point x="246" y="600" type="line"/>
      <point x="229" y="600" type="line"/>
    </contour>
    <contour>
      <point x="243" y="422" type="line"/>
      <point x="261" y="422" type="line"/>
      <point x="327" y="600" type="line"/>
      <point x="309" y="600" type="line"/>
    </contour>
    <contour>
      <point x="236" y="535" type="line"/>
      <point x="248" y="550" type="line"/>
      <point x="240" y="600" type="line"/>
      <point x="226" y="585" type="line"/>
    </contour>
    <contour>
      <point x="241" y="534" type="line"/>
      <point x="320" y="584" type="line"/>
      <point x="314" y="600" type="line"/>
      <point x="235" y="549" type="line"/>
    </contour>
    <contour>
      <point x="229" y="580" type="line"/>
      <point x="320" y="580" type="line"/>
      <point x="320" y="600" type="line"/>
      <point x="229" y="600" type="line"/>
    </contour>
    <contour>
      <point x="63" y="65" type="line"/>
      <point x="51" y="50" type="line"/>
      <point x="92" y="0" type="line"/>
      <point x="106" y="15" type="line"/>
    </contour>
    <contour>
      <point x="58" y="66" type="line"/>
      <point x="12" y="16" type="line"/>
      <point x="18" y="0" type="line"/>
      <point x="65" y="51" type="line"/>
    </contour>
    <contour>
      <point x="104" y="20" type="line"/>
      <point x="13" y="20" type="line"/>
      <point x="13" y="0" type="line"/>
      <point x="104" y="0" type="line"/>
    </contour>
    <contour>
      <point x="187" y="422" type="line"/>
      <point x="204" y="422" type="line"/>
      <point x="252" y="552" type="line"/>
      <point x="237" y="558" type="line"/>
    </contour>
    <contour>
      <point x="232" y="258" type="line"/>
      <point x="249" y="258" type="line"/>
      <point x="376" y="600" type="line"/>
      <point x="359" y="600" type="line"/>
    </contour>
    <contour>
      <point x="312" y="258" type="line"/>
      <point x="330" y="258" type="line"/>
      <point x="457" y="600" type="line"/>
      <point x="439" y="600" type="line"/>
    </contour>
    <contour>
      <point x="366" y="535" type="line"/>
      <point x="378" y="550" type="line"/>
      <point x="370" y="600" type="line"/>
      <point x="356" y="585" type="line"/>
    </contour>
    <contour>
      <point x="371" y="534" type="line"/>
      <point x="450" y="584" type="line"/>
      <point x="444" y="600" type="line"/>
      <point x="365" y="549" type="line"/>
    </contour>
    <contour>
      <point x="359" y="580" type="line"/>
      <point x="450" y="580" type="line"/>
      <point x="450" y="600" type="line"/>
      <point x="359" y="600" type="line"/>
    </contour>
    <contour>
      <point x="193" y="65" type="line"/>
      <point x="181" y="50" type="line"/>
      <point x="222" y="0" type="line"/>
      <point x="236" y="15" type="line"/>
    </contour>
    <contour>
      <point x="188" y="66" type="line"/>
      <point x="142" y="16" type="line"/>
      <point x="148" y="0" type="line"/>
      <point x="195" y="51" type="line"/>
    </contour>
    <contour>
      <point x="234" y="20" type="line"/>
      <point x="143" y="20" type="line"/>
      <point x="143" y="0" type="line"/>
      <point x="234" y="0" type="line"/>
    </contour>
    <contour>
      <point x="256" y="258" type="line"/>
      <point x="274" y="258" type="line"/>
      <point x="382" y="552" type="line"/>
      <point x="367" y="558" type="line"/>
    </contour>
    <contour>
      <point x="23" y="174" type="line"/>
      <point x="23" y="265" type="line"/>
      <point x="6" y="265" type="line"/>
      <point x="6" y="174" type="line"/>
    </contour>
    <contour>
      <point x="37" y="211" type="line"/>
      <point x="92" y="211" type="line"/>
      <point x="98" y="228" type="line"/>
      <point x="37" y="228" type="line"/>
    </contour>
    <contour>
      <point x="6" y="248" type="line"/>
      <point x="104" y="248" type="line"/>
      <point x="110" y="265" type="line"/>
      <point x="6" y="265" type="line"/>
    </contour>
    <contour>
      <point x="45" y="225" type="line"/>
      <point x="22" y="265" type="line"/>
      <point x="8" y="255" type="line"/>
      <point x="32" y="215" type="line"/>
    </contour>
    <contour>
      <point x="6" y="191" type="line"/>
      <point x="6" y="174" type="line"/>
      <point x="77" y="174" type="line"/>
      <point x="83" y="191" type="line"/>
    </contour>
    <contour>
      <point x="45" y="214" type="line"/>
      <point x="32" y="224" type="line"/>
      <point x="8" y="184" type="line"/>
      <point x="22" y="174" type="line"/>
    </contour>
    <contour>
      <point x="412" y="265" type="line"/>
      <point x="412" y="174" type="line"/>
      <point x="429" y="174" type="line"/>
      <point x="429" y="265" type="line"/>
    </contour>
    <contour>
      <point x="172" y="211" type="line"/>
      <point x="354" y="211" type="line"/>
      <point x="354" y="228" type="line"/>
      <point x="178" y="228" type="line"/>
    </contour>
    <contour>
      <point x="336" y="214" type="line"/>
      <point x="413" y="174" type="line"/>
      <point x="427" y="184" type="line"/>
      <point x="349" y="224" type="line"/>
    </contour>
    <contour>
      <point x="336" y="225" type="line"/>
      <point x="349" y="215" type="line"/>
      <point x="427" y="255" type="line"/>
      <point x="413" y="265" type="line"/>
    </contour>
    <contour>
      <point x="429" y="265" type="line"/>
      <point x="192" y="265" type="line"/>
      <point x="186" y="248" type="line"/>
      <point x="429" y="248" type="line"/>
    </contour>
    <contour>
      <point x="429" y="191" type="line"/>
      <point x="162" y="191" type="line"/>
      <point x="156" y="174" type="line"/>
      <point x="429" y="174" type="line"/>
    </contour>
    <contour>
      <point x="469" y="426" type="line"/>
      <point x="469" y="335" type="line"/>
      <point x="486" y="335" type="line"/>
      <point x="486" y="426" type="line"/>
    </contour>
    <contour>
      <point x="411" y="389" type="line"/>
      <point x="370" y="389" type="line"/>
      <point x="364" y="372" type="line"/>
      <point x="411" y="372" type="line"/>
    </contour>
    <contour>
      <point x="486" y="352" type="line"/>
      <point x="358" y="352" type="line"/>
      <point x="352" y="335" type="line"/>
      <point x="486" y="335" type="line"/>
    </contour>
    <contour>
      <point x="393" y="375" type="line"/>
      <point x="470" y="335" type="line"/>
      <point x="484" y="345" type="line"/>
      <point x="406" y="385" type="line"/>
    </contour>
    <contour>
      <point x="486" y="409" type="line"/>
      <point x="486" y="426" type="line"/>
      <point x="385" y="426" type="line"/>
      <point x="379" y="409" type="line"/>
    </contour>
    <contour>
      <point x="393" y="386" type="line"/>
      <point x="406" y="376" type="line"/>
      <point x="484" y="416" type="line"/>
      <point x="470" y="426" type="line"/>
    </contour>
    <contour>
      <point x="80" y="335" type="line"/>
      <point x="80" y="426" type="line"/>
      <point x="63" y="426" type="line"/>
      <point x="63" y="335" type="line"/>
    </contour>
    <contour>
      <point x="290" y="389" type="line"/>
      <point x="94" y="389" type="line"/>
      <point x="94" y="372" type="line"/>
      <point x="284" y="372" type="line"/>
    </contour>
    <contour>
      <point x="306" y="426" type="line"/>
      <point x="63" y="426" type="line"/>
      <point x="63" y="409" type="line"/>
      <point x="300" y="409" type="line"/>
    </contour>
    <contour>
      <point x="102" y="386" type="line"/>
      <point x="79" y="426" type="line"/>
      <point x="65" y="416" type="line"/>
      <point x="89" y="376" type="line"/>
    </contour>
    <contour>
      <point x="276" y="352" type="line"/>
      <point x="63" y="352" type="line"/>
      <point x="63" y="335" type="line"/>
      <point x="270" y="335" type="line"/>
    </contour>
    <contour>
      <point x="102" y="375" type="line"/>
      <point x="89" y="385" type="line"/>
      <point x="65" y="345" type="line"/>
      <point x="79" y="335" type="line"/>
    </contour>
    <contour>
      <point x="151" y="344" type="line"/>
      <point x="133" y="344" type="line"/>
      <point x="5" y="0" type="line"/>
      <point x="23" y="0" type="line"/>
    </contour>
    <contour>
      <point x="175" y="344" type="line"/>
      <point x="157" y="344" type="line"/>
      <point x="50" y="55" type="line"/>
      <point x="65" y="44" type="line"/>
    </contour>
    <contour>
      <point x="232" y="344" type="line"/>
      <point x="214" y="344" type="line"/>
      <point x="86" y="0" type="line"/>
      <point x="104" y="0" type="line"/>
    </contour>
    <contour>
      <point x="219" y="178" type="line"/>
      <point x="201" y="178" type="line"/>
      <point x="135" y="0" type="line"/>
      <point x="153" y="0" type="line"/>
    </contour>
    <contour>
      <point x="244" y="178" type="line"/>
      <point x="226" y="178" type="line"/>
      <point x="180" y="55" type="line"/>
      <point x="195" y="44" type="line"/>
    </contour>
    <contour>
      <point x="300" y="178" type="line"/>
      <point x="282" y="178" type="line"/>
      <point x="216" y="0" type="line"/>
      <point x="234" y="0" type="line"/>
    </contour>
  </outline>
</glyph>
<glyph name="ampersand" format="2">
  <advance width="582"/>
  <unicode hex="0026"/>
  <outline>
    <contour>
      <point x="312" y="0" type="line"/>
      <point x="565" y="0" type="line"/>
      <point x="565" y="20" type="line"/>
      <point x="312" y="20" type="line"/>
    </contour>
    <contour>
      <point x="345" y="89" type="line"/>
      <point x="444" y="89" type="line"/>
      <point x="444" y="109" type="line"/>
      <point x="345" y="109" type="line"/>
    </contour>
    <contour>
      <point x="447" y="160" type="line"/>
      <point x="562" y="160" type="line"/>
      <point x="562" y="180" type="line"/>
      <point x="447" y="180" type="line"/>
    </contour>
    <contour>
      <point x="549" y="7" type="line"/>
      <point x="563" y="20" type="line"/>
      <point x="436" y="107" type="line"/>
      <point x="418" y="95" type="line"/>
    </contour>
    <contour>
      <point x="552" y="0" type="line"/>
      <point x="572" y="0" type="line"/>
      <point x="572" y="180" type="line"/>
      <point x="552" y="180" type="line"/>
    </contour>
    <contour>
      <point x="549" y="177" type="line"/>
      <point x="418" y="99" type="line"/>
      <point x="436" y="87" type="line"/>
      <point x="563" y="164" type="line"/>
    </contour>
    <contour>
      <point x="323" y="2" type="line"/>
      <point x="355" y="98" type="line"/>
      <point x="338" y="108" type="line"/>
      <point x="308" y="15" type="line"/>
    </contour>
    <contour>
      <point x="452" y="180" type="line"/>
      <point x="341" y="112" type="line"/>
      <point x="352" y="96" type="line"/>
      <point x="466" y="167" type="line"/>
    </contour>
    <contour>
      <point x="181" y="346" type="line"/>
      <point x="197" y="358" type="line"/>
      <point x="147" y="445" type="line"/>
      <point x="131" y="433" type="line"/>
    </contour>
    <contour>
      <point x="306" y="434" type="line"/>
      <point x="322" y="446" type="line"/>
      <point x="300" y="485" type="line"/>
      <point x="284" y="473" type="line"/>
    </contour>
    <contour>
      <point x="148" y="314" type="line"/>
      <point x="164" y="325" type="line"/>
      <point x="116" y="414" type="line"/>
      <point x="100" y="402" type="line"/>
    </contour>
    <contour>
      <point x="435" y="340" type="line"/>
      <point x="203" y="161" type="line"/>
      <point x="213" y="146" type="line"/>
      <point x="447" y="326" type="line"/>
    </contour>
    <contour>
      <point x="412" y="284" type="line"/>
      <point x="163" y="91" type="line"/>
      <point x="171" y="75" type="line"/>
      <point x="423" y="271" type="line"/>
    </contour>
    <contour>
      <point x="506" y="292" type="line"/>
      <point x="167" y="16" type="line"/>
      <point x="178" y="0" type="line"/>
      <point x="524" y="285" type="line"/>
    </contour>
    <contour>
      <point x="98" y="85" type="line"/>
      <point x="171" y="75" type="line"/>
      <point x="171" y="95" type="line"/>
      <point x="98" y="105" type="line"/>
    </contour>
    <contour>
      <point x="75" y="0" type="line"/>
      <point x="178" y="0" type="line"/>
      <point x="178" y="20" type="line"/>
      <point x="75" y="20" type="line"/>
    </contour>
    <contour>
      <point x="371" y="470" type="line"/>
      <point x="96" y="251" type="line"/>
      <point x="116" y="245" type="line"/>
      <point x="387" y="461" type="line"/>
    </contour>
    <contour>
      <point x="457" y="447" type="line"/>
      <point x="179" y="230" type="line"/>
      <point x="201" y="225" type="line"/>
      <point x="471" y="434" type="line"/>
    </contour>
    <contour>
      <point x="342" y="478" type="line"/>
      <point x="62" y="251" type="line"/>
      <point x="71" y="236" type="line"/>
      <point x="354" y="466" type="line"/>
    </contour>
    <contour>
      <point x="25" y="95" type="line"/>
      <point x="10" y="81" type="line"/>
      <point x="75" y="0" type="line"/>
      <point x="89" y="14" type="line"/>
    </contour>
    <contour>
      <point x="58" y="155" type="line"/>
      <point x="46" y="138" type="line"/>
      <point x="98" y="85" type="line"/>
      <point x="112" y="99" type="line"/>
    </contour>
    <contour>
      <point x="84" y="5" type="line"/>
      <point x="112" y="93" type="line"/>
      <point x="96" y="105" type="line"/>
      <point x="70" y="18" type="line"/>
    </contour>
    <contour>
      <point x="193" y="18" type="line"/>
      <point x="178" y="86" type="line"/>
      <point x="156" y="87" type="line"/>
      <point x="170" y="11" type="line"/>
    </contour>
    <contour>
      <point x="108" y="94" type="line"/>
      <point x="174" y="155" type="line"/>
      <point x="161" y="170" type="line"/>
      <point x="94" y="107" type="line"/>
    </contour>
    <contour>
      <point x="159" y="147" type="line"/>
      <point x="217" y="148" type="line"/>
      <point x="217" y="168" type="line"/>
      <point x="162" y="167" type="line"/>
    </contour>
    <contour>
      <point x="162" y="198" type="line"/>
      <point x="144" y="192" type="line"/>
      <point x="157" y="150" type="line"/>
      <point x="174" y="156" type="line"/>
    </contour>
    <contour>
      <point x="146" y="190" type="line"/>
      <point x="163" y="182" type="line"/>
      <point x="202" y="227" type="line"/>
      <point x="179" y="230" type="line"/>
    </contour>
    <contour>
      <point x="171" y="81" type="line"/>
      <point x="224" y="155" type="line"/>
      <point x="208" y="161" type="line"/>
      <point x="158" y="89" type="line"/>
    </contour>
    <contour>
      <point x="400" y="269" type="line"/>
      <point x="418" y="272" type="line"/>
      <point x="446" y="327" type="line"/>
      <point x="428" y="327" type="line"/>
    </contour>
    <contour>
      <point x="408" y="280" type="line"/>
      <point x="406" y="263" type="line"/>
      <point x="506" y="272" type="line"/>
      <point x="509" y="288" type="line"/>
    </contour>
    <contour>
      <point x="510" y="276" type="line"/>
      <point x="524" y="285" type="line"/>
      <point x="435" y="340" type="line"/>
      <point x="425" y="328" type="line"/>
    </contour>
    <contour>
      <point x="10" y="81" type="line"/>
      <point x="30" y="81" type="line"/>
      <point x="30" y="136" type="line"/>
      <point x="10" y="136" type="line"/>
    </contour>
    <contour>
      <point x="28" y="128" type="line"/>
      <point x="80" y="244" type="line"/>
      <point x="62" y="251" type="line"/>
      <point x="10" y="136" type="line"/>
    </contour>
    <contour>
      <point x="221" y="162" type="line"/>
      <point x="236" y="175" type="line"/>
      <point x="202" y="236" type="line"/>
      <point x="186" y="224" type="line"/>
    </contour>
    <contour>
      <point x="337" y="145" type="line"/>
      <point x="320" y="133" type="line"/>
      <point x="343" y="95" type="line"/>
      <point x="360" y="110" type="line"/>
    </contour>
    <contour>
      <point x="280" y="94" type="line"/>
      <point x="266" y="81" type="line"/>
      <point x="312" y="0" type="line"/>
      <point x="326" y="13" type="line"/>
    </contour>
    <contour>
      <point x="437" y="222" type="line"/>
      <point x="420" y="210" type="line"/>
      <point x="451" y="162" type="line"/>
      <point x="467" y="175" type="line"/>
    </contour>
    <contour>
      <point x="251" y="274" type="line"/>
      <point x="234" y="262" type="line"/>
      <point x="270" y="204" type="line"/>
      <point x="286" y="217" type="line"/>
    </contour>
    <contour>
      <point x="366" y="358" type="line"/>
      <point x="347" y="347" type="line"/>
      <point x="382" y="286" type="line"/>
      <point x="400" y="298" type="line"/>
    </contour>
    <contour>
      <point x="150" y="485" type="line"/>
      <point x="131" y="483" type="line"/>
      <point x="131" y="433" type="line"/>
      <point x="150" y="437" type="line"/>
    </contour>
    <contour>
      <point x="68" y="141" type="line"/>
      <point x="116" y="248" type="line"/>
      <point x="96" y="251" type="line"/>
      <point x="46" y="140" type="line"/>
    </contour>
    <contour>
      <point x="24" y="83" type="line"/>
      <point x="65" y="136" type="line"/>
      <point x="59" y="162" type="line"/>
      <point x="10" y="97" type="line"/>
    </contour>
    <contour>
      <point x="60" y="237" type="line"/>
      <point x="101" y="238" type="line"/>
      <point x="113" y="260" type="line"/>
      <point x="75" y="258" type="line"/>
    </contour>
    <contour>
      <point x="293" y="490" type="line"/>
      <point x="137" y="445" type="line"/>
      <point x="146" y="429" type="line"/>
      <point x="300" y="476" type="line"/>
    </contour>
    <contour>
      <point x="100" y="402" type="line"/>
      <point x="120" y="402" type="line"/>
      <point x="120" y="504" type="line"/>
      <point x="100" y="507" type="line"/>
    </contour>
    <contour>
      <point x="451" y="434" type="line"/>
      <point x="471" y="434" type="line"/>
      <point x="471" y="523" type="line"/>
      <point x="451" y="523" type="line"/>
    </contour>
    <contour>
      <point x="280" y="478" type="line"/>
      <point x="300" y="478" type="line"/>
      <point x="300" y="499" type="line"/>
      <point x="280" y="499" type="line"/>
    </contour>
    <contour>
      <point x="335" y="468" type="line"/>
      <point x="354" y="466" type="line"/>
      <point x="354" y="501" type="line"/>
      <point x="335" y="505" type="line"/>
    </contour>
    <contour>
      <point x="373" y="478" type="line"/>
      <point x="366" y="460" type="line"/>
      <point x="461" y="432" type="line"/>
      <point x="466" y="452" type="line"/>
    </contour>
    <contour>
      <point x="362" y="461" type="line"/>
      <point x="384" y="461" type="line"/>
      <point x="384" y="508" type="line"/>
      <point x="362" y="508" type="line"/>
    </contour>
    <contour>
      <point x="161" y="200" type="line"/>
      <point x="54" y="153" type="line"/>
      <point x="55" y="138" type="line"/>
      <point x="157" y="179" type="line"/>
    </contour>
    <contour>
      <point x="101" y="238" type="line"/>
      <point x="179" y="224" type="line"/>
      <point x="192" y="239" type="line"/>
      <point x="109" y="254" type="line"/>
    </contour>
    <contour>
      <point x="131" y="482" type="line"/>
      <point x="147" y="469" type="line"/>
      <point x="251" y="553" type="line"/>
      <point x="239" y="567" type="line"/>
    </contour>
    <contour>
      <point x="118" y="398" type="line"/>
      <point x="146" y="426" type="line"/>
      <point x="137" y="445" type="line"/>
      <point x="111" y="415" type="line"/>
    </contour>
    <contour>
      <point x="107" y="497" type="line"/>
      <point x="143" y="469" type="line"/>
      <point x="149" y="486" type="line"/>
      <point x="113" y="514" type="line"/>
    </contour>
    <contour>
      <point x="100" y="507" type="line"/>
      <point x="118" y="498" type="line"/>
      <point x="227" y="586" type="line"/>
      <point x="212" y="600" type="line"/>
    </contour>
    <contour>
      <point x="238" y="547" type="line"/>
      <point x="328" y="547" type="line"/>
      <point x="329" y="567" type="line"/>
      <point x="239" y="567" type="line"/>
    </contour>
    <contour>
      <point x="213" y="580" type="line"/>
      <point x="393" y="580" type="line"/>
      <point x="391" y="600" type="line"/>
      <point x="212" y="600" type="line"/>
    </contour>
    <contour>
      <point x="313" y="522" type="line"/>
      <point x="330" y="518" type="line"/>
      <point x="333" y="555" type="line"/>
      <point x="316" y="559" type="line"/>
    </contour>
    <contour>
      <point x="471" y="523" type="line"/>
      <point x="391" y="600" type="line"/>
      <point x="379" y="586" type="line"/>
      <point x="453" y="514" type="line"/>
    </contour>
    <contour>
      <point x="384" y="508" type="line"/>
      <point x="332" y="567" type="line"/>
      <point x="320" y="553" type="line"/>
      <point x="369" y="496" type="line"/>
    </contour>
    <contour>
      <point x="354" y="501" type="line"/>
      <point x="331" y="526" type="line"/>
      <point x="317" y="514" type="line"/>
      <point x="342" y="486" type="line"/>
    </contour>
    <contour>
      <point x="280" y="499" type="line"/>
      <point x="295" y="491" type="line"/>
      <point x="324" y="515" type="line"/>
      <point x="309" y="526" type="line"/>
    </contour>
    <contour>
      <point x="308" y="508" type="line"/>
      <point x="331" y="508" type="line"/>
      <point x="332" y="526" type="line"/>
      <point x="309" y="526" type="line"/>
    </contour>
    <contour>
      <point x="209" y="586" type="line"/>
      <point x="241" y="548" type="line"/>
      <point x="256" y="558" type="line"/>
      <point x="221" y="596" type="line"/>
    </contour>
    <contour>
      <point x="397" y="588" type="line"/>
      <point x="385" y="598" type="line"/>
      <point x="319" y="562" type="line"/>
      <point x="334" y="552" type="line"/>
    </contour>
  </outline>
</glyph>
<glyph name="quotesingle" format="2">
  <advance width="132"/>
  <unicode hex="0027"/>
  <outline>
    <contour>
      <point x="30" y="403" type="line"/>
      <point x="102" y="403" type="line"/>
      <point x="102" y="416" type="line"/>
      <point x="30" y="416" type="line"/>
    </contour>
    <contour>
      <point x="41" y="403" type="line"/>
      <point x="56" y="498" type="line"/>
      <point x="47" y="514" type="line"/>
      <point x="30" y="414" type="line"/>
    </contour>
    <contour>
      <point x="90" y="403" type="line"/>
      <point x="102" y="414" type="line"/>
      <point x="60" y="515" type="line"/>
      <point x="51" y="499" type="line"/>
    </contour>
    <contour>
      <point x="30" y="403" type="line"/>
      <point x="44" y="403" type="line"/>
      <point x="44" y="615" type="line"/>
      <point x="30" y="615" type="line"/>
    </contour>
    <contour>
      <point x="47" y="502" type="line"/>
      <point x="61" y="502" type="line"/>
      <point x="61" y="515" type="line"/>
      <point x="47" y="515" type="line"/>
    </contour>
    <contour>
      <point x="88" y="403" type="line"/>
      <point x="102" y="403" type="line"/>
      <point x="102" y="615" type="line"/>
      <point x="88" y="615" type="line"/>
    </contour>
    <contour>
      <point x="48" y="503" type="line"/>
      <point x="56" y="519" type="line"/>
      <point x="41" y="615" type="line"/>
      <point x="30" y="603" type="line"/>
    </contour>
    <contour>
      <point x="32" y="601" type="line"/>
      <point x="102" y="601" type="line"/>
      <point x="102" y="615" type="line"/>
      <point x="32" y="615" type="line"/>
    </contour>
    <contour>
      <point x="60" y="503" type="line"/>
      <point x="101" y="603" type="line"/>
      <point x="90" y="615" type="line"/>
      <point x="51" y="519" type="line"/>
    </contour>
  </outline>
</glyph>
<glyph name="asterisk" format="2">
  <advance width="382"/>
  <unicode hex="002A"/>
  <outline>
    <contour>
      <point x="88" y="339" type="line"/>
      <point x="193" y="415" type="line"/>
      <point x="183" y="425" type="line"/>
      <point x="81" y="352" type="line"/>
    </contour>
    <contour>
      <point x="76" y="558" type="line"/>
      <point x="87" y="547" type="line"/>
      <point x="119" y="578" type="line"/>
      <point x="107" y="590" type="line"/>
    </contour>
    <contour>
      <point x="55" y="369" type="line"/>
      <point x="87" y="337" type="line"/>
      <point x="98" y="349" type="line"/>
      <point x="66" y="380" type="line"/>
    </contour>
    <contour>
      <point x="129" y="462" type="line"/>
      <point x="139" y="472" type="line"/>
      <point x="88" y="566" type="line"/>
      <point x="76" y="558" type="line"/>
    </contour>
    <contour>
      <point x="55" y="369" type="line"/>
      <point x="69" y="363" type="line"/>
      <point x="140" y="461" type="line"/>
      <point x="129" y="472" type="line"/>
    </contour>
    <contour>
      <point x="64" y="361" type="line"/>
      <point x="146" y="449" type="line"/>
      <point x="147" y="467" type="line"/>
      <point x="63" y="377" type="line"/>
    </contour>
    <contour>
      <point x="83" y="550" type="line"/>
      <point x="158" y="500" type="line"/>
      <point x="161" y="513" type="line"/>
      <point x="83" y="566" type="line"/>
    </contour>
    <contour>
      <point x="79" y="345" type="line"/>
      <point x="95" y="345" type="line"/>
      <point x="156" y="458" type="line"/>
      <point x="139" y="458" type="line"/>
    </contour>
    <contour>
      <point x="153" y="505" type="line"/>
      <point x="166" y="508" type="line"/>
      <point x="116" y="583" type="line"/>
      <point x="100" y="582" type="line"/>
    </contour>
    <contour>
      <point x="99" y="577" type="line"/>
      <point x="194" y="524" type="line"/>
      <point x="205" y="535" type="line"/>
      <point x="107" y="590" type="line"/>
    </contour>
    <contour>
      <point x="131" y="456" type="line"/>
      <point x="171" y="478" type="line"/>
      <point x="172" y="494" type="line"/>
      <point x="126" y="472" type="line"/>
    </contour>
    <contour>
      <point x="175" y="417" type="line"/>
      <point x="190" y="417" type="line"/>
      <point x="185" y="491" type="line"/>
      <point x="168" y="490" type="line"/>
    </contour>
    <contour>
      <point x="138" y="458" type="line"/>
      <point x="148" y="448" type="line"/>
      <point x="216" y="516" type="line"/>
      <point x="206" y="525" type="line"/>
    </contour>
    <contour>
      <point x="152" y="504" type="line"/>
      <point x="199" y="458" type="line"/>
      <point x="209" y="467" type="line"/>
      <point x="162" y="514" type="line"/>
    </contour>
    <contour>
      <point x="168" y="487" type="line"/>
      <point x="185" y="488" type="line"/>
      <point x="208" y="533" type="line"/>
      <point x="191" y="533" type="line"/>
    </contour>
    <contour>
      <point x="176" y="479" type="line"/>
      <point x="251" y="473" type="line"/>
      <point x="252" y="489" type="line"/>
      <point x="177" y="495" type="line"/>
    </contour>
    <contour>
      <point x="177" y="414" type="line"/>
      <point x="273" y="361" type="line"/>
      <point x="279" y="373" type="line"/>
      <point x="187" y="424" type="line"/>
    </contour>
    <contour>
      <point x="191" y="533" type="line"/>
      <point x="202" y="523" type="line"/>
      <point x="303" y="596" type="line"/>
      <point x="295" y="609" type="line"/>
    </contour>
    <contour>
      <point x="265" y="368" type="line"/>
      <point x="281" y="368" type="line"/>
      <point x="193" y="480" type="line"/>
      <point x="187" y="471" type="line"/>
    </contour>
    <contour>
      <point x="201" y="520" type="line"/>
      <point x="214" y="517" type="line"/>
      <point x="305" y="598" type="line"/>
      <point x="288" y="598" type="line"/>
    </contour>
    <contour>
      <point x="192" y="466" type="line"/>
      <point x="297" y="385" type="line"/>
      <point x="298" y="401" type="line"/>
      <point x="195" y="479" type="line"/>
    </contour>
    <contour>
      <point x="210" y="511" type="line"/>
      <point x="318" y="569" type="line"/>
      <point x="319" y="585" type="line"/>
      <point x="206" y="524" type="line"/>
    </contour>
    <contour>
      <point x="291" y="388" type="line"/>
      <point x="305" y="392" type="line"/>
      <point x="248" y="491" type="line"/>
      <point x="238" y="481" type="line"/>
    </contour>
    <contour>
      <point x="240" y="482" type="line"/>
      <point x="250" y="472" type="line"/>
      <point x="327" y="577" type="line"/>
      <point x="315" y="585" type="line"/>
    </contour>
    <contour>
      <point x="262" y="372" type="line"/>
      <point x="273" y="361" type="line"/>
      <point x="305" y="392" type="line"/>
      <point x="293" y="404" type="line"/>
    </contour>
    <contour>
      <point x="283" y="597" type="line"/>
      <point x="315" y="565" type="line"/>
      <point x="327" y="577" type="line"/>
      <point x="295" y="609" type="line"/>
    </contour>
  </outline>
</glyph>
<glyph name="zero" format="2">
  <advance width="440"/>
  <unicode hex="0030"/>
  <outline>
    <contour>
      <point x="416" y="446" type="line"/>
      <point x="430" y="460" type="line"/>
      <point x="320" y="600" type="line"/>
      <point x="306" y="586" type="line"/>
    </contour>
    <contour>
      <point x="120" y="0" type="line"/>
      <point x="134" y="14" type="line"/>
      <point x="24" y="153" type="line"/>
      <point x="10" y="139" type="line"/>
    </contour>
    <contour>
      <point x="139" y="9" type="line"/>
      <point x="116" y="80" type="line"/>
      <point x="96" y="86" type="line"/>
      <point x="119" y="15" type="line"/>
    </contour>
    <contour>
      <point x="26" y="136" type="line"/>
      <point x="55" y="148" type="line"/>
      <point x="49" y="166" type="line"/>
      <point x="20" y="154" type="line"/>
    </contour>
    <contour>
      <point x="120" y="0" type="line"/>
      <point x="320" y="0" type="line"/>
      <point x="320" y="18" type="line"/>
      <point x="120" y="18" type="line"/>
    </contour>
    <contour>
      <point x="105" y="71" type="line"/>
      <point x="119" y="85" type="line"/>
      <point x="54" y="168" type="line"/>
      <point x="40" y="154" type="line"/>
    </contour>
    <contour>
      <point x="116" y="77" type="line"/>
      <point x="208" y="142" type="line"/>
      <point x="192" y="153" type="line"/>
      <point x="100" y="87" type="line"/>
    </contour>
    <contour>
      <point x="105" y="69" type="line"/>
      <point x="235" y="69" type="line"/>
      <point x="235" y="87" type="line"/>
      <point x="105" y="87" type="line"/>
    </contour>
    <contour>
      <point x="10" y="139" type="line"/>
      <point x="30" y="139" type="line"/>
      <point x="30" y="460" type="line"/>
      <point x="10" y="460" type="line"/>
    </contour>
    <contour>
      <point x="57" y="150" type="line"/>
      <point x="196" y="174" type="line"/>
      <point x="190" y="192" type="line"/>
      <point x="51" y="168" type="line"/>
    </contour>
    <contour>
      <point x="301" y="7" type="line"/>
      <point x="320" y="17" type="line"/>
      <point x="229" y="85" type="line"/>
      <point x="210" y="75" type="line"/>
    </contour>
    <contour>
      <point x="192" y="139" type="line"/>
      <point x="209" y="151" type="line"/>
      <point x="198" y="184" type="line"/>
      <point x="180" y="176" type="line"/>
    </contour>
    <contour>
      <point x="192" y="139" type="line"/>
      <point x="248" y="139" type="line"/>
      <point x="248" y="157" type="line"/>
      <point x="192" y="157" type="line"/>
    </contour>
    <contour>
      <point x="215" y="77" type="line"/>
      <point x="235" y="87" type="line"/>
      <point x="252" y="153" type="line"/>
      <point x="232" y="142" type="line"/>
    </contour>
    <contour>
      <point x="40" y="155" type="line"/>
      <point x="60" y="155" type="line"/>
      <point x="60" y="445" type="line"/>
      <point x="40" y="445" type="line"/>
    </contour>
    <contour>
      <point x="248" y="139" type="line"/>
      <point x="260" y="176" type="line"/>
      <point x="242" y="184" type="line"/>
      <point x="231" y="151" type="line"/>
    </contour>
    <contour>
      <point x="233" y="71" type="line"/>
      <point x="300" y="154" type="line"/>
      <point x="286" y="168" type="line"/>
      <point x="219" y="85" type="line"/>
    </contour>
    <contour>
      <point x="320" y="0" type="line"/>
      <point x="430" y="139" type="line"/>
      <point x="416" y="153" type="line"/>
      <point x="306" y="14" type="line"/>
    </contour>
    <contour>
      <point x="283" y="150" type="line"/>
      <point x="289" y="168" type="line"/>
      <point x="250" y="192" type="line"/>
      <point x="244" y="174" type="line"/>
    </contour>
    <contour>
      <point x="180" y="176" type="line"/>
      <point x="200" y="176" type="line"/>
      <point x="200" y="423" type="line"/>
      <point x="180" y="423" type="line"/>
    </contour>
    <contour>
      <point x="47" y="431" type="line"/>
      <point x="53" y="449" type="line"/>
      <point x="26" y="463" type="line"/>
      <point x="20" y="445" type="line"/>
    </contour>
    <contour>
      <point x="414" y="136" type="line"/>
      <point x="420" y="154" type="line"/>
      <point x="291" y="166" type="line"/>
      <point x="285" y="148" type="line"/>
    </contour>
    <contour>
      <point x="240" y="176" type="line"/>
      <point x="260" y="176" type="line"/>
      <point x="260" y="423" type="line"/>
      <point x="240" y="423" type="line"/>
    </contour>
    <contour>
      <point x="190" y="407" type="line"/>
      <point x="196" y="425" type="line"/>
      <point x="57" y="449" type="line"/>
      <point x="51" y="431" type="line"/>
    </contour>
    <contour>
      <point x="24" y="446" type="line"/>
      <point x="134" y="586" type="line"/>
      <point x="120" y="600" type="line"/>
      <point x="10" y="460" type="line"/>
    </contour>
    <contour>
      <point x="54" y="431" type="line"/>
      <point x="119" y="514" type="line"/>
      <point x="105" y="528" type="line"/>
      <point x="40" y="445" type="line"/>
    </contour>
    <contour>
      <point x="198" y="415" type="line"/>
      <point x="209" y="452" type="line"/>
      <point x="192" y="464" type="line"/>
      <point x="180" y="423" type="line"/>
    </contour>
    <contour>
      <point x="280" y="155" type="line"/>
      <point x="300" y="155" type="line"/>
      <point x="300" y="445" type="line"/>
      <point x="280" y="445" type="line"/>
    </contour>
    <contour>
      <point x="192" y="448" type="line"/>
      <point x="208" y="459" type="line"/>
      <point x="116" y="522" type="line"/>
      <point x="100" y="512" type="line"/>
    </contour>
    <contour>
      <point x="192" y="446" type="line"/>
      <point x="248" y="446" type="line"/>
      <point x="248" y="464" type="line"/>
      <point x="192" y="464" type="line"/>
    </contour>
    <contour>
      <point x="242" y="415" type="line"/>
      <point x="260" y="423" type="line"/>
      <point x="248" y="464" type="line"/>
      <point x="231" y="452" type="line"/>
    </contour>
    <contour>
      <point x="94" y="511" type="line"/>
      <point x="115" y="517" type="line"/>
      <point x="140" y="592" type="line"/>
      <point x="121" y="586" type="line"/>
    </contour>
    <contour>
      <point x="250" y="407" type="line"/>
      <point x="289" y="431" type="line"/>
      <point x="283" y="449" type="line"/>
      <point x="244" y="425" type="line"/>
    </contour>
    <contour>
      <point x="105" y="510" type="line"/>
      <point x="225" y="510" type="line"/>
      <point x="225" y="528" type="line"/>
      <point x="105" y="528" type="line"/>
    </contour>
    <contour>
      <point x="410" y="139" type="line"/>
      <point x="430" y="139" type="line"/>
      <point x="430" y="460" type="line"/>
      <point x="410" y="460" type="line"/>
    </contour>
    <contour>
      <point x="248" y="464" type="line"/>
      <point x="229" y="512" type="line"/>
      <point x="206" y="522" type="line"/>
      <point x="229" y="457" type="line"/>
    </contour>
    <contour>
      <point x="286" y="431" type="line"/>
      <point x="300" y="445" type="line"/>
      <point x="225" y="528" type="line"/>
      <point x="211" y="514" type="line"/>
    </contour>
    <contour>
      <point x="120" y="582" type="line"/>
      <point x="320" y="582" type="line"/>
      <point x="320" y="600" type="line"/>
      <point x="120" y="600" type="line"/>
    </contour>
    <contour>
      <point x="291" y="433" type="line"/>
      <point x="420" y="445" type="line"/>
      <point x="414" y="463" type="line"/>
      <point x="285" y="451" type="line"/>
    </contour>
    <contour>
      <point x="224" y="511" type="line"/>
      <point x="325" y="585" type="line"/>
      <point x="303" y="591" type="line"/>
      <point x="202" y="517" type="line"/>
    </contour>
  </outline>
</glyph>
<glyph name="three" format="2">
  <advance width="458"/>
  <unicode hex="0033"/>
  <outline>
    <contour>
      <point x="448" y="241" type="line"/>
      <point x="425" y="241" type="line"/>
      <point x="425" y="114" type="line"/>
      <point x="448" y="114" type="line"/>
    </contour>
    <contour>
      <point x="291" y="227" type="line"/>
      <point x="273" y="227" type="line"/>
      <point x="273" y="144" type="line"/>
      <point x="291" y="144" type="line"/>
    </contour>
    <contour>
      <point x="245" y="185" type="line"/>
      <point x="239" y="168" type="line"/>
      <point x="278" y="141" type="line"/>
      <point x="282" y="159" type="line"/>
    </contour>
    <contour>
      <point x="437" y="130" type="line"/>
      <point x="300" y="15" type="line"/>
      <point x="312" y="-1" type="line"/>
      <point x="448" y="114" type="line"/>
    </contour>
    <contour>
      <point x="282" y="159" type="line"/>
      <point x="210" y="90" type="line"/>
      <point x="222" y="75" type="line"/>
      <point x="294" y="144" type="line"/>
    </contour>
    <contour>
      <point x="239" y="187" type="line"/>
      <point x="219" y="167" type="line"/>
      <point x="232" y="152" type="line"/>
      <point x="250" y="172" type="line"/>
    </contour>
    <contour>
      <point x="232" y="173" type="line"/>
      <point x="195" y="173" type="line"/>
      <point x="195" y="152" type="line"/>
      <point x="232" y="152" type="line"/>
    </contour>
    <contour>
      <point x="194" y="203" type="line"/>
      <point x="174" y="203" type="line"/>
      <point x="174" y="175" type="line"/>
      <point x="194" y="175" type="line"/>
    </contour>
    <contour>
      <point x="183" y="190" type="line"/>
      <point x="172" y="175" type="line"/>
      <point x="196" y="153" type="line"/>
      <point x="207" y="169" type="line"/>
    </contour>
    <contour>
      <point x="215" y="158" type="line"/>
      <point x="195" y="166" type="line"/>
      <point x="117" y="91" type="line"/>
      <point x="137" y="84" type="line"/>
    </contour>
    <contour>
      <point x="220" y="95" type="line"/>
      <point x="120" y="95" type="line"/>
      <point x="120" y="75" type="line"/>
      <point x="222" y="75" type="line"/>
    </contour>
    <contour>
      <point x="194" y="218" type="line"/>
      <point x="10" y="218" type="line"/>
      <point x="10" y="198" type="line"/>
      <point x="194" y="198" type="line"/>
    </contour>
    <contour>
      <point x="57" y="157" type="line"/>
      <point x="46" y="142" type="line"/>
      <point x="120" y="75" type="line"/>
      <point x="132" y="91" type="line"/>
    </contour>
    <contour>
      <point x="312" y="19" type="line"/>
      <point x="142" y="19" type="line"/>
      <point x="139" y="-1" type="line"/>
      <point x="312" y="-1" type="line"/>
    </contour>
    <contour>
      <point x="63" y="143" type="line"/>
      <point x="47" y="156" type="line"/>
      <point x="17" y="140" type="line"/>
      <point x="22" y="124" type="line"/>
    </contour>
    <contour>
      <point x="115" y="89" type="line"/>
      <point x="133" y="10" type="line"/>
      <point x="151" y="4" type="line"/>
      <point x="134" y="83" type="line"/>
    </contour>
    <contour>
      <point x="30" y="198" type="line"/>
      <point x="10" y="198" type="line"/>
      <point x="10" y="123" type="line"/>
      <point x="30" y="126" type="line"/>
    </contour>
    <contour>
      <point x="20" y="141" type="line"/>
      <point x="10" y="123" type="line"/>
      <point x="139" y="-1" type="line"/>
      <point x="152" y="14" type="line"/>
    </contour>
    <contour>
      <point x="47" y="156" type="line"/>
      <point x="55" y="140" type="line"/>
      <point x="187" y="173" type="line"/>
      <point x="180" y="189" type="line"/>
    </contour>
    <contour>
      <point x="283" y="159" type="line"/>
      <point x="280" y="139" type="line"/>
      <point x="434" y="109" type="line"/>
      <point x="438" y="129" type="line"/>
    </contour>
    <contour>
      <point x="234" y="170" type="line"/>
      <point x="216" y="164" type="line"/>
      <point x="214" y="80" type="line"/>
      <point x="231" y="86" type="line"/>
    </contour>
    <contour>
      <point x="225" y="93" type="line"/>
      <point x="208" y="86" type="line"/>
      <point x="300" y="7" type="line"/>
      <point x="316" y="16" type="line"/>
    </contour>
    <contour>
      <point x="241" y="248" type="line"/>
      <point x="280" y="211" type="line"/>
      <point x="280" y="231" type="line"/>
      <point x="241" y="268" type="line"/>
    </contour>
    <contour>
      <point x="275" y="217" type="line"/>
      <point x="291" y="227" type="line"/>
      <point x="275" y="315" type="line"/>
      <point x="258" y="306" type="line"/>
    </contour>
    <contour>
      <point x="271" y="322" type="line"/>
      <point x="171" y="322" type="line"/>
      <point x="171" y="302" type="line"/>
      <point x="271" y="302" type="line"/>
    </contour>
    <contour>
      <point x="428" y="381" type="line"/>
      <point x="428" y="515" type="line"/>
      <point x="408" y="515" type="line"/>
      <point x="408" y="381" type="line"/>
    </contour>
    <contour>
      <point x="292" y="388" type="line"/>
      <point x="292" y="485" type="line"/>
      <point x="272" y="485" type="line"/>
      <point x="272" y="388" type="line"/>
    </contour>
    <contour>
      <point x="286" y="386" type="line"/>
      <point x="278" y="402" type="line"/>
      <point x="235" y="366" type="line"/>
      <point x="243" y="350" type="line"/>
    </contour>
    <contour>
      <point x="239" y="431" type="line"/>
      <point x="285" y="472" type="line"/>
      <point x="277" y="489" type="line"/>
      <point x="232" y="448" type="line"/>
    </contour>
    <contour>
      <point x="417" y="499" type="line"/>
      <point x="428" y="515" type="line"/>
      <point x="312" y="600" type="line"/>
      <point x="300" y="584" type="line"/>
    </contour>
    <contour>
      <point x="250" y="361" type="line"/>
      <point x="250" y="448" type="line"/>
      <point x="230" y="448" type="line"/>
      <point x="230" y="361" type="line"/>
    </contour>
    <contour>
      <point x="280" y="470" type="line"/>
      <point x="292" y="485" type="line"/>
      <point x="222" y="544" type="line"/>
      <point x="210" y="529" type="line"/>
    </contour>
    <contour>
      <point x="239" y="431" type="line"/>
      <point x="250" y="448" type="line"/>
      <point x="222" y="467" type="line"/>
      <point x="213" y="450" type="line"/>
    </contour>
    <contour>
      <point x="222" y="446" type="line"/>
      <point x="222" y="467" type="line"/>
      <point x="205" y="467" type="line"/>
      <point x="205" y="446" type="line"/>
    </contour>
    <contour>
      <point x="184" y="406" type="line"/>
      <point x="184" y="444" type="line"/>
      <point x="164" y="444" type="line"/>
      <point x="164" y="406" type="line"/>
    </contour>
    <contour>
      <point x="175" y="428" type="line"/>
      <point x="213" y="449" type="line"/>
      <point x="205" y="467" type="line"/>
      <point x="164" y="444" type="line"/>
    </contour>
    <contour>
      <point x="217" y="460" type="line"/>
      <point x="135" y="534" type="line"/>
      <point x="118" y="527" type="line"/>
      <point x="200" y="453" type="line"/>
    </contour>
    <contour>
      <point x="220" y="524" type="line"/>
      <point x="222" y="544" type="line"/>
      <point x="120" y="544" type="line"/>
      <point x="120" y="524" type="line"/>
    </contour>
    <contour>
      <point x="184" y="391" type="line"/>
      <point x="184" y="411" type="line"/>
      <point x="20" y="411" type="line"/>
      <point x="20" y="391" type="line"/>
    </contour>
    <contour>
      <point x="56" y="455" type="line"/>
      <point x="132" y="528" type="line"/>
      <point x="120" y="543" type="line"/>
      <point x="41" y="466" type="line"/>
    </contour>
    <contour>
      <point x="312" y="580" type="line"/>
      <point x="312" y="600" type="line"/>
      <point x="119" y="600" type="line"/>
      <point x="122" y="580" type="line"/>
    </contour>
    <contour>
      <point x="53" y="468" type="line"/>
      <point x="36" y="501" type="line"/>
      <point x="29" y="485" type="line"/>
      <point x="47" y="451" type="line"/>
    </contour>
    <contour>
      <point x="121" y="526" type="line"/>
      <point x="139" y="531" type="line"/>
      <point x="131" y="595" type="line"/>
      <point x="113" y="589" type="line"/>
    </contour>
    <contour>
      <point x="40" y="411" type="line"/>
      <point x="40" y="493" type="line"/>
      <point x="20" y="496" type="line"/>
      <point x="20" y="411" type="line"/>
    </contour>
    <contour>
      <point x="30" y="478" type="line"/>
      <point x="132" y="585" type="line"/>
      <point x="119" y="600" type="line"/>
      <point x="20" y="496" type="line"/>
    </contour>
    <contour>
      <point x="47" y="451" type="line"/>
      <point x="170" y="430" type="line"/>
      <point x="177" y="446" type="line"/>
      <point x="45" y="471" type="line"/>
    </contour>
    <contour>
      <point x="281" y="471" type="line"/>
      <point x="422" y="499" type="line"/>
      <point x="418" y="517" type="line"/>
      <point x="278" y="489" type="line"/>
    </contour>
    <contour>
      <point x="229" y="454" type="line"/>
      <point x="228" y="531" type="line"/>
      <point x="212" y="539" type="line"/>
      <point x="214" y="462" type="line"/>
    </contour>
    <contour>
      <point x="220" y="530" type="line"/>
      <point x="318" y="583" type="line"/>
      <point x="304" y="593" type="line"/>
      <point x="204" y="541" type="line"/>
    </contour>
    <contour>
      <point x="156" y="362" type="line"/>
      <point x="144" y="346" type="line"/>
      <point x="164" y="304" type="line"/>
      <point x="179" y="320" type="line"/>
    </contour>
    <contour>
      <point x="169" y="322" type="line"/>
      <point x="141" y="264" type="line"/>
      <point x="156" y="248" type="line"/>
      <point x="184" y="308" type="line"/>
    </contour>
    <contour>
      <point x="433" y="223" type="line"/>
      <point x="433" y="244" type="line"/>
      <point x="282" y="234" type="line"/>
      <point x="282" y="213" type="line"/>
    </contour>
    <contour>
      <point x="156" y="248" type="line"/>
      <point x="156" y="367" type="line"/>
      <point x="136" y="367" type="line"/>
      <point x="136" y="248" type="line"/>
    </contour>
    <contour>
      <point x="248" y="347" type="line"/>
      <point x="248" y="367" type="line"/>
      <point x="140" y="367" type="line"/>
      <point x="140" y="347" type="line"/>
    </contour>
    <contour>
      <point x="246" y="248" type="line"/>
      <point x="246" y="268" type="line"/>
      <point x="140" y="268" type="line"/>
      <point x="140" y="248" type="line"/>
    </contour>
    <contour>
      <point x="411" y="395" type="line"/>
      <point x="262" y="319" type="line"/>
      <point x="274" y="303" type="line"/>
      <point x="428" y="381" type="line"/>
    </contour>
    <contour>
      <point x="433" y="226" type="line"/>
      <point x="448" y="241" type="line"/>
      <point x="273" y="319" type="line"/>
      <point x="262" y="303" type="line"/>
    </contour>
    <contour>
      <point x="275" y="304" type="line"/>
      <point x="260" y="315" type="line"/>
      <point x="231" y="263" type="line"/>
      <point x="247" y="252" type="line"/>
    </contour>
    <contour>
      <point x="250" y="172" type="line"/>
      <point x="250" y="267" type="line"/>
      <point x="230" y="267" type="line"/>
      <point x="230" y="172" type="line"/>
    </contour>
    <contour>
      <point x="411" y="380" type="line"/>
      <point x="413" y="398" type="line"/>
      <point x="282" y="400" type="line"/>
      <point x="282" y="382" type="line"/>
    </contour>
    <contour>
      <point x="275" y="399" type="line"/>
      <point x="260" y="319" type="line"/>
      <point x="278" y="311" type="line"/>
      <point x="292" y="391" type="line"/>
    </contour>
    <contour>
      <point x="275" y="318" type="line"/>
      <point x="247" y="370" type="line"/>
      <point x="231" y="359" type="line"/>
      <point x="260" y="307" type="line"/>
    </contour>
  </outline>
</glyph>
<glyph name="four" format="2">
  <advance width="455"/>
  <unicode hex="0034"/>
  <outline>
    <contour>
      <point x="312" y="580" type="line"/>
      <point x="100" y="580" type="line"/>
    </contour>
    <contour>
      <point x="158" y="474" type="line"/>
      <point x="121" y="589" type="line"/>
      <point x="102" y="582" type="line"/>
      <point x="139" y="467" type="line"/>
    </contour>
    <contour>
      <point x="294" y="597" type="line"/>
      <point x="139" y="472" type="line"/>
      <point x="155" y="462" type="line"/>
      <point x="308" y="585" type="line"/>
    </contour>
    <contour>
      <point x="303" y="600" type="line"/>
      <point x="164" y="267" type="line"/>
      <point x="183" y="266" type="line"/>
      <point x="322" y="600" type="line"/>
    </contour>
    <contour>
      <point x="225" y="119" type="line"/>
      <point x="15" y="119" type="line"/>
      <point x="15" y="99" type="line"/>
      <point x="225" y="99" type="line"/>
    </contour>
    <contour>
      <point x="317" y="600" type="line"/>
      <point x="100" y="600" type="line"/>
      <point x="100" y="580" type="line"/>
      <point x="310" y="580" type="line"/>
    </contour>
    <contour>
      <point x="100" y="600" type="line"/>
      <point x="10" y="334" type="line"/>
      <point x="28" y="326" type="line"/>
      <point x="118" y="592" type="line"/>
    </contour>
    <contour>
      <point x="425" y="274" type="line"/>
      <point x="425" y="110" type="line"/>
      <point x="445" y="110" type="line"/>
      <point x="445" y="274" type="line"/>
    </contour>
    <contour>
      <point x="220" y="274" type="line"/>
      <point x="170" y="274" type="line"/>
      <point x="170" y="257" type="line"/>
      <point x="220" y="257" type="line"/>
    </contour>
    <contour>
      <point x="140" y="474" type="line"/>
      <point x="43" y="193" type="line"/>
      <point x="60" y="188" type="line"/>
      <point x="161" y="474" type="line"/>
    </contour>
    <contour>
      <point x="10" y="334" type="line"/>
      <point x="10" y="99" type="line"/>
      <point x="30" y="99" type="line"/>
      <point x="30" y="334" type="line"/>
    </contour>
    <contour>
      <point x="43" y="191" type="line"/>
      <point x="17" y="120" type="line"/>
      <point x="31" y="107" type="line"/>
      <point x="58" y="178" type="line"/>
    </contour>
    <contour>
      <point x="209" y="0" type="line"/>
      <point x="389" y="0" type="line"/>
      <point x="389" y="20" type="line"/>
      <point x="209" y="20" type="line"/>
    </contour>
    <contour>
      <point x="222" y="0" type="line"/>
      <point x="274" y="72" type="line"/>
      <point x="261" y="85" type="line"/>
      <point x="209" y="13" type="line"/>
    </contour>
    <contour>
      <point x="376" y="0" type="line"/>
      <point x="389" y="13" type="line"/>
      <point x="277" y="85" type="line"/>
      <point x="264" y="72" type="line"/>
    </contour>
    <contour>
      <point x="209" y="262" type="line"/>
      <point x="229" y="262" type="line"/>
      <point x="229" y="350" type="line"/>
      <point x="209" y="350" type="line"/>
    </contour>
    <contour>
      <point x="259" y="70" type="line"/>
      <point x="279" y="70" type="line"/>
      <point x="279" y="304" type="line"/>
      <point x="259" y="304" type="line"/>
    </contour>
    <contour>
      <point x="261" y="290" type="line"/>
      <point x="274" y="305" type="line"/>
      <point x="227" y="340" type="line"/>
      <point x="214" y="327" type="line"/>
    </contour>
    <contour>
      <point x="214" y="330" type="line"/>
      <point x="389" y="330" type="line"/>
      <point x="389" y="350" type="line"/>
      <point x="214" y="350" type="line"/>
    </contour>
    <contour>
      <point x="276" y="290" type="line"/>
      <point x="389" y="327" type="line"/>
      <point x="376" y="340" type="line"/>
      <point x="263" y="305" type="line"/>
    </contour>
    <contour>
      <point x="224" y="276" type="line"/>
      <point x="208" y="264" type="line"/>
      <point x="259" y="183" type="line"/>
      <point x="273" y="196" type="line"/>
    </contour>
    <contour>
      <point x="258" y="189" type="line"/>
      <point x="212" y="112" type="line"/>
      <point x="227" y="97" type="line"/>
      <point x="272" y="176" type="line"/>
    </contour>
    <contour>
      <point x="167" y="274" type="line"/>
      <point x="46" y="195" type="line"/>
      <point x="56" y="180" type="line"/>
      <point x="182" y="261" type="line"/>
    </contour>
    <contour>
      <point x="391" y="270" type="line"/>
      <point x="391" y="350" type="line"/>
      <point x="371" y="350" type="line"/>
      <point x="371" y="270" type="line"/>
    </contour>
    <contour>
      <point x="378" y="278" type="line"/>
      <point x="265" y="193" type="line"/>
      <point x="279" y="181" type="line"/>
      <point x="391" y="264" type="line"/>
    </contour>
    <contour>
      <point x="278" y="190" type="line"/>
      <point x="264" y="177" type="line"/>
      <point x="376" y="97" type="line"/>
      <point x="391" y="110" type="line"/>
    </contour>
    <contour>
      <point x="445" y="119" type="line"/>
      <point x="376" y="119" type="line"/>
      <point x="376" y="99" type="line"/>
      <point x="445" y="99" type="line"/>
    </contour>
    <contour>
      <point x="441" y="274" type="line"/>
      <point x="380" y="274" type="line"/>
      <point x="380" y="257" type="line"/>
      <point x="441" y="257" type="line"/>
    </contour>
    <contour>
      <point x="209" y="10" type="line"/>
      <point x="229" y="10" type="line"/>
      <point x="229" y="110" type="line"/>
      <point x="209" y="110" type="line"/>
    </contour>
    <contour>
      <point x="391" y="0" type="line"/>
      <point x="391" y="110" type="line"/>
      <point x="371" y="110" type="line"/>
      <point x="371" y="0" type="line"/>
    </contour>
    <contour>
      <point x="423" y="270" type="line"/>
      <point x="325" y="193" type="line"/>
      <point x="338" y="180" type="line"/>
      <point x="438" y="259" type="line"/>
    </contour>
    <contour>
      <point x="339" y="192" type="line"/>
      <point x="324" y="181" type="line"/>
      <point x="425" y="106" type="line"/>
      <point x="438" y="118" type="line"/>
    </contour>
    <contour>
      <point x="50" y="177" type="line"/>
      <point x="339" y="177" type="line"/>
      <point x="339" y="197" type="line"/>
      <point x="50" y="197" type="line"/>
    </contour>
    <contour>
      <point x="44" y="177" type="line"/>
      <point x="59" y="188" type="line"/>
      <point x="27" y="349" type="line"/>
      <point x="20" y="327" type="line"/>
    </contour>
  </outline>
</glyph>
<glyph name="question" format="2">
  <advance width="401"/>
  <unicode hex="003F"/>
  <outline>
    <contour>
      <point x="174" y="310" type="line"/>
      <point x="272" y="408" type="line"/>
      <point x="259" y="421" type="line"/>
      <point x="164" y="325" type="line"/>
    </contour>
    <contour>
      <point x="255" y="274" type="line"/>
      <point x="396" y="361" type="line"/>
      <point x="384" y="377" type="line"/>
      <point x="243" y="290" type="line"/>
    </contour>
    <contour>
      <point x="241" y="190" type="line"/>
      <point x="265" y="291" type="line"/>
      <point x="245" y="291" type="line"/>
      <point x="221" y="190" type="line"/>
    </contour>
    <contour>
      <point x="396" y="361" type="line"/>
      <point x="396" y="515" type="line"/>
      <point x="376" y="515" type="line"/>
      <point x="376" y="361" type="line"/>
    </contour>
    <contour>
      <point x="169" y="190" type="line"/>
      <point x="184" y="190" type="line"/>
      <point x="184" y="209" type="line"/>
      <point x="169" y="209" type="line"/>
    </contour>
    <contour>
      <point x="183" y="197" type="line"/>
      <point x="183" y="325" type="line"/>
      <point x="163" y="325" type="line"/>
      <point x="163" y="197" type="line"/>
    </contour>
    <contour>
      <point x="274" y="404" type="line"/>
      <point x="274" y="485" type="line"/>
      <point x="254" y="485" type="line"/>
      <point x="254" y="404" type="line"/>
    </contour>
    <contour>
      <point x="256" y="400" type="line"/>
      <point x="262" y="418" type="line"/>
      <point x="213" y="418" type="line"/>
      <point x="207" y="400" type="line"/>
    </contour>
    <contour>
      <point x="211" y="429" type="line"/>
      <point x="270" y="477" type="line"/>
      <point x="260" y="490" type="line"/>
      <point x="208" y="446" type="line"/>
    </contour>
    <contour>
      <point x="385" y="499" type="line"/>
      <point x="396" y="515" type="line"/>
      <point x="280" y="600" type="line"/>
      <point x="268" y="584" type="line"/>
    </contour>
    <contour>
      <point x="180" y="309" type="line"/>
      <point x="178" y="329" type="line"/>
      <point x="144" y="328" type="line"/>
      <point x="145" y="309" type="line"/>
    </contour>
    <contour>
      <point x="174" y="190" type="line"/>
      <point x="155" y="324" type="line"/>
      <point x="135" y="325" type="line"/>
      <point x="154" y="190" type="line"/>
    </contour>
    <contour>
      <point x="228" y="404" type="line"/>
      <point x="228" y="448" type="line"/>
      <point x="208" y="448" type="line"/>
      <point x="208" y="404" type="line"/>
    </contour>
    <contour>
      <point x="264" y="470" type="line"/>
      <point x="276" y="485" type="line"/>
      <point x="204" y="544" type="line"/>
      <point x="192" y="529" type="line"/>
    </contour>
    <contour>
      <point x="145" y="309" type="line"/>
      <point x="228" y="403" type="line"/>
      <point x="218" y="419" type="line"/>
      <point x="135" y="325" type="line"/>
    </contour>
    <contour>
      <point x="215" y="432" type="line"/>
      <point x="226" y="447" type="line"/>
      <point x="200" y="467" type="line"/>
      <point x="190" y="452" type="line"/>
    </contour>
    <contour>
      <point x="200" y="446" type="line"/>
      <point x="200" y="467" type="line"/>
      <point x="170" y="467" type="line"/>
      <point x="170" y="446" type="line"/>
    </contour>
    <contour>
      <point x="159" y="406" type="line"/>
      <point x="159" y="444" type="line"/>
      <point x="139" y="444" type="line"/>
      <point x="139" y="406" type="line"/>
    </contour>
    <contour>
      <point x="148" y="429" type="line"/>
      <point x="179" y="452" type="line"/>
      <point x="168" y="467" type="line"/>
      <point x="137" y="444" type="line"/>
    </contour>
    <contour>
      <point x="187" y="457" type="line"/>
      <point x="111" y="538" type="line"/>
      <point x="94" y="529" type="line"/>
      <point x="166" y="450" type="line"/>
    </contour>
    <contour>
      <point x="202" y="524" type="line"/>
      <point x="204" y="544" type="line"/>
      <point x="107" y="544" type="line"/>
      <point x="107" y="524" type="line"/>
    </contour>
    <contour>
      <point x="159" y="391" type="line"/>
      <point x="159" y="411" type="line"/>
      <point x="5" y="411" type="line"/>
      <point x="5" y="391" type="line"/>
    </contour>
    <contour>
      <point x="28" y="462" type="line"/>
      <point x="113" y="530" type="line"/>
      <point x="101" y="546" type="line"/>
      <point x="17" y="477" type="line"/>
    </contour>
    <contour>
      <point x="280" y="580" type="line"/>
      <point x="280" y="600" type="line"/>
      <point x="114" y="600" type="line"/>
      <point x="117" y="580" type="line"/>
    </contour>
    <contour>
      <point x="29" y="476" type="line"/>
      <point x="21" y="501" type="line"/>
      <point x="14" y="485" type="line"/>
      <point x="21" y="460" type="line"/>
    </contour>
    <contour>
      <point x="95" y="528" type="line"/>
      <point x="114" y="534" type="line"/>
      <point x="126" y="595" type="line"/>
      <point x="108" y="589" type="line"/>
    </contour>
    <contour>
      <point x="25" y="411" type="line"/>
      <point x="25" y="493" type="line"/>
      <point x="5" y="496" type="line"/>
      <point x="5" y="411" type="line"/>
    </contour>
    <contour>
      <point x="15" y="478" type="line"/>
      <point x="127" y="585" type="line"/>
      <point x="114" y="600" type="line"/>
      <point x="5" y="496" type="line"/>
    </contour>
    <contour>
      <point x="22" y="461" type="line"/>
      <point x="145" y="430" type="line"/>
      <point x="152" y="446" type="line"/>
      <point x="30" y="477" type="line"/>
    </contour>
    <contour>
      <point x="267" y="472" type="line"/>
      <point x="390" y="499" type="line"/>
      <point x="386" y="517" type="line"/>
      <point x="260" y="491" type="line"/>
    </contour>
    <contour>
      <point x="383" y="359" type="line"/>
      <point x="389" y="376" type="line"/>
      <point x="263" y="419" type="line"/>
      <point x="256" y="400" type="line"/>
    </contour>
    <contour>
      <point x="257" y="274" type="line"/>
      <point x="263" y="292" type="line"/>
      <point x="184" y="327" type="line"/>
      <point x="178" y="310" type="line"/>
    </contour>
    <contour>
      <point x="172" y="190" type="line"/>
      <point x="237" y="190" type="line"/>
      <point x="237" y="209" type="line"/>
      <point x="172" y="209" type="line"/>
    </contour>
    <contour>
      <point x="115" y="0" type="line"/>
      <point x="280" y="0" type="line"/>
      <point x="280" y="18" type="line"/>
      <point x="115" y="18" type="line"/>
    </contour>
    <contour>
      <point x="129" y="0" type="line"/>
      <point x="155" y="69" type="line"/>
      <point x="143" y="89" type="line"/>
      <point x="115" y="14" type="line"/>
    </contour>
    <contour>
      <point x="266" y="0" type="line"/>
      <point x="280" y="14" type="line"/>
      <point x="158" y="90" type="line"/>
      <point x="149" y="70" type="line"/>
    </contour>
    <contour>
      <point x="115" y="0" type="line"/>
      <point x="135" y="0" type="line"/>
      <point x="135" y="165" type="line"/>
      <point x="115" y="165" type="line"/>
    </contour>
    <contour>
      <point x="143" y="74" type="line"/>
      <point x="159" y="74" type="line"/>
      <point x="159" y="91" type="line"/>
      <point x="143" y="91" type="line"/>
    </contour>
    <contour>
      <point x="260" y="0" type="line"/>
      <point x="280" y="0" type="line"/>
      <point x="280" y="165" type="line"/>
      <point x="260" y="165" type="line"/>
    </contour>
    <contour>
      <point x="144" y="76" type="line"/>
      <point x="156" y="96" type="line"/>
      <point x="129" y="165" type="line"/>
      <point x="115" y="151" type="line"/>
    </contour>
    <contour>
      <point x="118" y="147" type="line"/>
      <point x="280" y="147" type="line"/>
      <point x="280" y="165" type="line"/>
      <point x="118" y="165" type="line"/>
    </contour>
    <contour>
      <point x="158" y="76" type="line"/>
      <point x="279" y="151" type="line"/>
      <point x="265" y="165" type="line"/>
      <point x="149" y="96" type="line"/>
    </contour>
    <contour>
      <point x="210" y="449" type="line"/>
      <point x="211" y="533" type="line"/>
      <point x="193" y="539" type="line"/>
      <point x="191" y="455" type="line"/>
    </contour>
    <contour>
      <point x="208" y="526" type="line"/>
      <point x="293" y="585" type="line"/>
      <point x="275" y="591" type="line"/>
      <point x="189" y="532" type="line"/>
    </contour>
  </outline>
</glyph>
<glyph name="A" format="2">
  <advance width="579"/>
  <unicode hex="0041"/>
  <anchor x="270" y="0" name="bottom"/>
  <anchor x="552" y="18" name="ogonek"/>
  <anchor x="290" y="600" name="top"/>
  <outline>
    <contour>
      <point x="557" y="0" type="line"/>
      <point x="577" y="0" type="line"/>
      <point x="416" y="600" type="line"/>
      <point x="397" y="595" type="line"/>
    </contour>
    <contour>
      <point x="26" y="1" type="line"/>
      <point x="75" y="83" type="line"/>
      <point x="55" y="85" type="line"/>
      <point x="4" y="1" type="line"/>
    </contour>
    <contour>
      <point x="8" y="0" type="line"/>
      <point x="192" y="0" type="line"/>
      <point x="192" y="20" type="line"/>
      <point x="8" y="20" type="line"/>
    </contour>
    <contour>
      <point x="181" y="1" type="line"/>
      <point x="195" y="15" type="line"/>
      <point x="76" y="95" type="line"/>
      <point x="63" y="80" type="line"/>
    </contour>
    <contour>
      <point x="192" y="0" type="line"/>
      <point x="216" y="91" type="line"/>
      <point x="197" y="96" type="line"/>
      <point x="173" y="5" type="line"/>
    </contour>
    <contour>
      <point x="201" y="80" type="line"/>
      <point x="215" y="94" type="line"/>
      <point x="93" y="172" type="line"/>
      <point x="78" y="159" type="line"/>
    </contour>
    <contour>
      <point x="204" y="80" type="line"/>
      <point x="345" y="80" type="line"/>
      <point x="345" y="100" type="line"/>
      <point x="204" y="100" type="line"/>
    </contour>
    <contour>
      <point x="90" y="158" type="line"/>
      <point x="263" y="200" type="line"/>
      <point x="254" y="218" type="line"/>
      <point x="81" y="176" type="line"/>
    </contour>
    <contour>
      <point x="2" y="0" type="line"/>
      <point x="22" y="0" type="line"/>
      <point x="181" y="595" type="line"/>
      <point x="162" y="600" type="line"/>
    </contour>
    <contour>
      <point x="347" y="0" type="line"/>
      <point x="366" y="5" type="line"/>
      <point x="347" y="96" type="line"/>
      <point x="328" y="91" type="line"/>
    </contour>
    <contour>
      <point x="89" y="162" type="line"/>
      <point x="356" y="162" type="line"/>
      <point x="356" y="182" type="line"/>
      <point x="89" y="182" type="line"/>
    </contour>
    <contour>
      <point x="74" y="80" type="line"/>
      <point x="191" y="515" type="line"/>
      <point x="172" y="520" type="line"/>
      <point x="55" y="85" type="line"/>
    </contour>
    <contour>
      <point x="359" y="1" type="line"/>
      <point x="379" y="112" type="line"/>
      <point x="362" y="122" type="line"/>
      <point x="345" y="15" type="line"/>
    </contour>
    <contour>
      <point x="347" y="0" type="line"/>
      <point x="571" y="0" type="line"/>
      <point x="571" y="20" type="line"/>
      <point x="347" y="20" type="line"/>
    </contour>
    <contour>
      <point x="254" y="198" type="line"/>
      <point x="304" y="198" type="line"/>
      <point x="304" y="218" type="line"/>
      <point x="254" y="218" type="line"/>
    </contour>
    <contour>
      <point x="345" y="80" type="line"/>
      <point x="359" y="171" type="line"/>
      <point x="343" y="184" type="line"/>
      <point x="329" y="94" type="line"/>
    </contour>
    <contour>
      <point x="256" y="200" type="line"/>
      <point x="284" y="343" type="line"/>
      <point x="268" y="348" type="line"/>
      <point x="237" y="206" type="line"/>
    </contour>
    <contour>
      <point x="291" y="201" type="line"/>
      <point x="311" y="206" type="line"/>
      <point x="284" y="343" type="line"/>
      <point x="266" y="338" type="line"/>
    </contour>
    <contour>
      <point x="345" y="158" type="line"/>
      <point x="354" y="176" type="line"/>
      <point x="304" y="218" type="line"/>
      <point x="295" y="200" type="line"/>
    </contour>
    <contour>
      <point x="558" y="2" type="line"/>
      <point x="570" y="18" type="line"/>
      <point x="371" y="124" type="line"/>
      <point x="363" y="104" type="line"/>
    </contour>
    <contour>
      <point x="267" y="330" type="line"/>
      <point x="283" y="341" type="line"/>
      <point x="191" y="511" type="line"/>
      <point x="172" y="506" type="line"/>
    </contour>
    <contour>
      <point x="362" y="102" type="line"/>
      <point x="381" y="107" type="line"/>
      <point x="283" y="520" type="line"/>
      <point x="264" y="515" type="line"/>
    </contour>
    <contour>
      <point x="170" y="511" type="line"/>
      <point x="189" y="514" type="line"/>
      <point x="178" y="597" type="line"/>
      <point x="160" y="588" type="line"/>
    </contour>
    <contour>
      <point x="284" y="340" type="line"/>
      <point x="281" y="508" type="line"/>
      <point x="262" y="513" type="line"/>
      <point x="268" y="341" type="line"/>
    </contour>
    <contour>
      <point x="172" y="500" type="line"/>
      <point x="283" y="500" type="line"/>
      <point x="283" y="520" type="line"/>
      <point x="172" y="520" type="line"/>
    </contour>
    <contour>
      <point x="162" y="580" type="line"/>
      <point x="416" y="580" type="line"/>
      <point x="416" y="600" type="line"/>
      <point x="162" y="600" type="line"/>
    </contour>
    <contour>
      <point x="277" y="501" type="line"/>
      <point x="416" y="581" type="line"/>
      <point x="403" y="596" type="line"/>
      <point x="265" y="517" type="line"/>
    </contour>
  </outline>
</glyph>
<glyph name="B" format="2">
  <advance width="521"/>
  <unicode hex="0042"/>
  <anchor x="263" y="0" name="bottom"/>
  <anchor x="263" y="300" name="center"/>
  <anchor x="263" y="600" name="top"/>
  <outline>
    <contour>
      <point x="10" y="2" type="line"/>
      <point x="30" y="2" type="line"/>
      <point x="30" y="600" type="line"/>
      <point x="10" y="600" type="line"/>
    </contour>
    <contour>
      <point x="58" y="95" type="line"/>
      <point x="78" y="95" type="line"/>
      <point x="78" y="523" type="line"/>
      <point x="58" y="523" type="line"/>
    </contour>
    <contour>
      <point x="201" y="366" type="line"/>
      <point x="221" y="366" type="line"/>
      <point x="221" y="442" type="line"/>
      <point x="201" y="442" type="line"/>
    </contour>
    <contour>
      <point x="201" y="160" type="line"/>
      <point x="221" y="160" type="line"/>
      <point x="221" y="242" type="line"/>
      <point x="201" y="242" type="line"/>
    </contour>
    <contour>
      <point x="496" y="90" type="line"/>
      <point x="516" y="90" type="line"/>
      <point x="516" y="226" type="line"/>
      <point x="496" y="226" type="line"/>
    </contour>
    <contour>
      <point x="493" y="380" type="line"/>
      <point x="513" y="380" type="line"/>
      <point x="513" y="519" type="line"/>
      <point x="493" y="519" type="line"/>
    </contour>
    <contour>
      <point x="11" y="22" type="line"/>
      <point x="11" y="2" type="line"/>
      <point x="389" y="2" type="line"/>
      <point x="389" y="22" type="line"/>
    </contour>
    <contour>
      <point x="11" y="600" type="line"/>
      <point x="11" y="580" type="line"/>
      <point x="390" y="580" type="line"/>
      <point x="390" y="600" type="line"/>
    </contour>
    <contour>
      <point x="58" y="523" type="line"/>
      <point x="58" y="503" type="line"/>
      <point x="273" y="503" type="line"/>
      <point x="289" y="523" type="line"/>
    </contour>
    <contour>
      <point x="59" y="114" type="line"/>
      <point x="59" y="94" type="line"/>
      <point x="301" y="94" type="line"/>
      <point x="301" y="114" type="line"/>
    </contour>
    <contour>
      <point x="339" y="389" type="line"/>
      <point x="359" y="389" type="line"/>
      <point x="359" y="469" type="line"/>
      <point x="339" y="469" type="line"/>
    </contour>
    <contour>
      <point x="346" y="139" type="line"/>
      <point x="366" y="139" type="line"/>
      <point x="366" y="217" type="line"/>
      <point x="346" y="217" type="line"/>
    </contour>
    <contour>
      <point x="201" y="178" type="line"/>
      <point x="201" y="158" type="line"/>
      <point x="292" y="158" type="line"/>
      <point x="292" y="178" type="line"/>
    </contour>
    <contour>
      <point x="201" y="244" type="line"/>
      <point x="201" y="224" type="line"/>
      <point x="292" y="224" type="line"/>
      <point x="292" y="244" type="line"/>
    </contour>
    <contour>
      <point x="201" y="443" type="line"/>
      <point x="201" y="423" type="line"/>
      <point x="287" y="423" type="line"/>
      <point x="287" y="443" type="line"/>
    </contour>
    <contour>
      <point x="201" y="381" type="line"/>
      <point x="201" y="361" type="line"/>
      <point x="287" y="361" type="line"/>
      <point x="287" y="381" type="line"/>
    </contour>
    <contour>
      <point x="25" y="18" type="line"/>
      <point x="73" y="96" type="line"/>
      <point x="60" y="110" type="line"/>
      <point x="13" y="31" type="line"/>
    </contour>
    <contour>
      <point x="207" y="225" type="line"/>
      <point x="218" y="240" type="line"/>
      <point x="72" y="318" type="line"/>
      <point x="60" y="302" type="line"/>
    </contour>
    <contour>
      <point x="205" y="428" type="line"/>
      <point x="217" y="443" type="line"/>
      <point x="71" y="522" type="line"/>
      <point x="58" y="506" type="line"/>
    </contour>
    <contour>
      <point x="207" y="381" type="line"/>
      <point x="58" y="311" type="line"/>
      <point x="69" y="295" type="line"/>
      <point x="217" y="366" type="line"/>
    </contour>
    <contour>
      <point x="214" y="180" type="line"/>
      <point x="69" y="110" type="line"/>
      <point x="79" y="94" type="line"/>
      <point x="244" y="165" type="line"/>
    </contour>
    <contour>
      <point x="380" y="306" type="line"/>
      <point x="384" y="309" type="line"/>
      <point x="289" y="383" type="line"/>
      <point x="278" y="367" type="line"/>
      <point x="368" y="297" type="line"/>
      <point x="380" y="306" type="line"/>
      <point x="390" y="299" type="line"/>
      <point x="513" y="380" type="line"/>
      <point x="503" y="395" type="line"/>
      <point x="373" y="310" type="line"/>
      <point x="380" y="306" type="line"/>
      <point x="368" y="297" type="line"/>
      <point x="506" y="211" type="line"/>
      <point x="516" y="226" type="line"/>
      <point x="384" y="309" type="line"/>
      <point x="380" y="306" type="line"/>
      <point x="373" y="310" type="line"/>
      <point x="283" y="239" type="line"/>
      <point x="299" y="226" type="line"/>
      <point x="390" y="299" type="line"/>
    </contour>
    <contour>
      <point x="505" y="83" type="line"/>
      <point x="513" y="99" type="line"/>
      <point x="355" y="158" type="line"/>
      <point x="347" y="141" type="line"/>
    </contour>
    <contour>
      <point x="391" y="5" type="line"/>
      <point x="405" y="16" type="line"/>
      <point x="300" y="113" type="line"/>
      <point x="285" y="102" type="line"/>
    </contour>
    <contour>
      <point x="502" y="526" type="line"/>
      <point x="343" y="467" type="line"/>
      <point x="351" y="450" type="line"/>
      <point x="510" y="510" type="line"/>
    </contour>
    <contour>
      <point x="506" y="105" type="line"/>
      <point x="378" y="18" type="line"/>
      <point x="389" y="2" type="line"/>
      <point x="516" y="90" type="line"/>
    </contour>
    <contour>
      <point x="503" y="504" type="line"/>
      <point x="513" y="519" type="line"/>
      <point x="390" y="600" type="line"/>
      <point x="379" y="584" type="line"/>
    </contour>
    <contour>
      <point x="356" y="160" type="line"/>
      <point x="284" y="108" type="line"/>
      <point x="297" y="96" type="line"/>
      <point x="366" y="145" type="line"/>
    </contour>
    <contour>
      <point x="340" y="393" type="line"/>
      <point x="318" y="343" type="line"/>
      <point x="335" y="333" type="line"/>
      <point x="359" y="389" type="line"/>
    </contour>
    <contour>
      <point x="349" y="453" type="line"/>
      <point x="359" y="468" type="line"/>
      <point x="277" y="522" type="line"/>
      <point x="266" y="506" type="line"/>
    </contour>
    <contour>
      <point x="355" y="204" type="line"/>
      <point x="366" y="217" type="line"/>
      <point x="320" y="262" type="line"/>
      <point x="308" y="248" type="line"/>
    </contour>
    <contour>
      <point x="307" y="209" type="line"/>
      <point x="317" y="224" type="line"/>
      <point x="289" y="244" type="line"/>
      <point x="279" y="228" type="line"/>
    </contour>
    <contour>
      <point x="297" y="178" type="line"/>
      <point x="317" y="178" type="line"/>
      <point x="317" y="224" type="line"/>
      <point x="297" y="224" type="line"/>
    </contour>
    <contour>
      <point x="308" y="194" type="line"/>
      <point x="282" y="175" type="line"/>
      <point x="292" y="158" type="line"/>
      <point x="317" y="178" type="line"/>
    </contour>
    <contour>
      <point x="353" y="221" type="line"/>
      <point x="354" y="201" type="line"/>
      <point x="507" y="212" type="line"/>
      <point x="507" y="232" type="line"/>
    </contour>
    <contour>
      <point x="347" y="382" type="line"/>
      <point x="502" y="376" type="line"/>
      <point x="502" y="394" type="line"/>
      <point x="348" y="400" type="line"/>
    </contour>
    <contour>
      <point x="58" y="319" type="line"/>
      <point x="58" y="299" type="line"/>
      <point x="367" y="299" type="line"/>
      <point x="367" y="319" type="line"/>
    </contour>
    <contour>
      <point x="264" y="509" type="line"/>
      <point x="275" y="432" type="line"/>
      <point x="294" y="432" type="line"/>
      <point x="282" y="510" type="line"/>
    </contour>
    <contour>
      <point x="384" y="596" type="line"/>
      <point x="261" y="511" type="line"/>
      <point x="276" y="500" type="line"/>
      <point x="396" y="584" type="line"/>
    </contour>
    <contour>
      <point x="306" y="408" type="line"/>
      <point x="316" y="423" type="line"/>
      <point x="287" y="443" type="line"/>
      <point x="277" y="427" type="line"/>
    </contour>
    <contour>
      <point x="296" y="381" type="line"/>
      <point x="316" y="381" type="line"/>
      <point x="316" y="423" type="line"/>
      <point x="296" y="423" type="line"/>
    </contour>
    <contour>
      <point x="307" y="397" type="line"/>
      <point x="277" y="378" type="line"/>
      <point x="287" y="361" type="line"/>
      <point x="316" y="381" type="line"/>
    </contour>
    <contour>
      <point x="309" y="408" type="line"/>
      <point x="354" y="452" type="line"/>
      <point x="345" y="466" type="line"/>
      <point x="303" y="426" type="line"/>
    </contour>
    <contour>
      <point x="302" y="391" type="line"/>
      <point x="302" y="374" type="line"/>
      <point x="349" y="384" type="line"/>
      <point x="349" y="401" type="line"/>
    </contour>
    <contour>
      <point x="309" y="191" type="line"/>
      <point x="303" y="173" type="line"/>
      <point x="345" y="138" type="line"/>
      <point x="354" y="152" type="line"/>
    </contour>
    <contour>
      <point x="302" y="213" type="line"/>
      <point x="357" y="202" type="line"/>
      <point x="357" y="221" type="line"/>
      <point x="302" y="232" type="line"/>
    </contour>
    <contour>
      <point x="289" y="102" type="line"/>
      <point x="304" y="113" type="line"/>
      <point x="289" y="174" type="line"/>
      <point x="275" y="163" type="line"/>
    </contour>
    <contour>
      <point x="28" y="598" type="line"/>
      <point x="13" y="585" type="line"/>
      <point x="59" y="509" type="line"/>
      <point x="75" y="523" type="line"/>
    </contour>
  </outline>
</glyph>
<glyph name="D" format="2">
  <advance width="529"/>
  <unicode hex="0044"/>
  <anchor x="247" y="0" name="bottom"/>
  <anchor x="247" y="300" name="center"/>
  <anchor x="247" y="600" name="top"/>
  <outline>
    <contour>
      <point x="214" y="429" type="line"/>
      <point x="226" y="444" type="line"/>
      <point x="87" y="524" type="line"/>
      <point x="78" y="508" type="line"/>
    </contour>
    <contour>
      <point x="32" y="7" type="line"/>
      <point x="92" y="108" type="line"/>
      <point x="67" y="109" type="line"/>
      <point x="13" y="14" type="line"/>
    </contour>
    <contour>
      <point x="28" y="0" type="line"/>
      <point x="358" y="0" type="line"/>
      <point x="363" y="20" type="line"/>
      <point x="28" y="20" type="line"/>
    </contour>
    <contour>
      <point x="10" y="0" type="line"/>
      <point x="28" y="0" type="line"/>
      <point x="28" y="600" type="line"/>
      <point x="10" y="600" type="line"/>
    </contour>
    <contour>
      <point x="101" y="106" type="line"/>
      <point x="238" y="178" type="line"/>
      <point x="212" y="185" type="line"/>
      <point x="69" y="112" type="line"/>
    </contour>
    <contour>
      <point x="83" y="95" type="line"/>
      <point x="284" y="95" type="line"/>
      <point x="284" y="113" type="line"/>
      <point x="83" y="113" type="line"/>
    </contour>
    <contour>
      <point x="66" y="95" type="line"/>
      <point x="86" y="95" type="line"/>
      <point x="86" y="528" type="line"/>
      <point x="66" y="528" type="line"/>
    </contour>
    <contour>
      <point x="208" y="166" type="line"/>
      <point x="277" y="166" type="line"/>
      <point x="277" y="186" type="line"/>
      <point x="208" y="186" type="line"/>
    </contour>
    <contour>
      <point x="345" y="9" type="line"/>
      <point x="365" y="16" type="line"/>
      <point x="291" y="109" type="line"/>
      <point x="276" y="100" type="line"/>
    </contour>
    <contour>
      <point x="271" y="98" type="line"/>
      <point x="287" y="108" type="line"/>
      <point x="284" y="185" type="line"/>
      <point x="269" y="175" type="line"/>
    </contour>
    <contour>
      <point x="283" y="173" type="line"/>
      <point x="321" y="212" type="line"/>
      <point x="306" y="223" type="line"/>
      <point x="268" y="184" type="line"/>
    </contour>
    <contour>
      <point x="208" y="178" type="line"/>
      <point x="227" y="178" type="line"/>
      <point x="227" y="437" type="line"/>
      <point x="208" y="437" type="line"/>
    </contour>
    <contour>
      <point x="287" y="94" type="line"/>
      <point x="385" y="181" type="line"/>
      <point x="367" y="189" type="line"/>
      <point x="276" y="109" type="line"/>
    </contour>
    <contour>
      <point x="358" y="0" type="line"/>
      <point x="524" y="146" type="line"/>
      <point x="505" y="153" type="line"/>
      <point x="345" y="12" type="line"/>
    </contour>
    <contour>
      <point x="369" y="173" type="line"/>
      <point x="380" y="187" type="line"/>
      <point x="308" y="225" type="line"/>
      <point x="304" y="209" type="line"/>
    </contour>
    <contour>
      <point x="304" y="208" type="line"/>
      <point x="323" y="210" type="line"/>
      <point x="323" y="405" type="line"/>
      <point x="304" y="405" type="line"/>
    </contour>
    <contour>
      <point x="506" y="142" type="line"/>
      <point x="517" y="158" type="line"/>
      <point x="376" y="188" type="line"/>
      <point x="370" y="172" type="line"/>
    </contour>
    <contour>
      <point x="208" y="430" type="line"/>
      <point x="275" y="430" type="line"/>
      <point x="275" y="449" type="line"/>
      <point x="208" y="449" type="line"/>
    </contour>
    <contour>
      <point x="311" y="391" type="line"/>
      <point x="325" y="405" type="line"/>
      <point x="275" y="449" type="line"/>
      <point x="263" y="435" type="line"/>
    </contour>
    <contour>
      <point x="68" y="510" type="line"/>
      <point x="273" y="510" type="line"/>
      <point x="273" y="528" type="line"/>
      <point x="68" y="528" type="line"/>
    </contour>
    <contour>
      <point x="361" y="184" type="line"/>
      <point x="380" y="184" type="line"/>
      <point x="380" y="434" type="line"/>
      <point x="361" y="434" type="line"/>
    </contour>
    <contour>
      <point x="275" y="430" type="line"/>
      <point x="279" y="523" type="line"/>
      <point x="261" y="525" type="line"/>
      <point x="257" y="436" type="line"/>
    </contour>
    <contour>
      <point x="26" y="580" type="line"/>
      <point x="365" y="580" type="line"/>
      <point x="374" y="600" type="line"/>
      <point x="26" y="600" type="line"/>
    </contour>
    <contour>
      <point x="310" y="389" type="line"/>
      <point x="374" y="426" type="line"/>
      <point x="363" y="438" type="line"/>
      <point x="305" y="406" type="line"/>
    </contour>
    <contour>
      <point x="370" y="419" type="line"/>
      <point x="380" y="434" type="line"/>
      <point x="272" y="523" type="line"/>
      <point x="261" y="510" type="line"/>
    </contour>
    <contour>
      <point x="524" y="146" type="line"/>
      <point x="524" y="469" type="line"/>
      <point x="504" y="469" type="line"/>
      <point x="504" y="150" type="line"/>
    </contour>
    <contour>
      <point x="281" y="514" type="line"/>
      <point x="368" y="580" type="line"/>
      <point x="348" y="586" type="line"/>
      <point x="265" y="524" type="line"/>
    </contour>
    <contour>
      <point x="374" y="420" type="line"/>
      <point x="516" y="454" type="line"/>
      <point x="510" y="472" type="line"/>
      <point x="364" y="437" type="line"/>
    </contour>
    <contour>
      <point x="506" y="460" type="line"/>
      <point x="524" y="469" type="line"/>
      <point x="373" y="600" type="line"/>
      <point x="357" y="586" type="line"/>
    </contour>
    <contour>
      <point x="73" y="510" type="line"/>
      <point x="85" y="525" type="line"/>
      <point x="26" y="591" type="line"/>
      <point x="17" y="575" type="line"/>
    </contour>
  </outline>
</glyph>
<glyph name="F" format="2">
  <advance width="455"/>
  <unicode hex="0046"/>
  <anchor x="230" y="0" name="bottom"/>
  <anchor x="230" y="600" name="top"/>
  <outline>
    <contour>
      <point x="23" y="0" type="line"/>
      <point x="75" y="97" type="line"/>
      <point x="62" y="110" type="line"/>
      <point x="10" y="13" type="line"/>
    </contour>
    <contour>
      <point x="10" y="0" type="line"/>
      <point x="30" y="0" type="line"/>
      <point x="30" y="600" type="line"/>
      <point x="10" y="600" type="line"/>
    </contour>
    <contour>
      <point x="57" y="93" type="line"/>
      <point x="77" y="93" type="line"/>
      <point x="77" y="526" type="line"/>
      <point x="57" y="526" type="line"/>
    </contour>
    <contour>
      <point x="207" y="223" type="line"/>
      <point x="220" y="237" type="line"/>
      <point x="72" y="317" type="line"/>
      <point x="57" y="304" type="line"/>
    </contour>
    <contour>
      <point x="197" y="225" type="line"/>
      <point x="357" y="225" type="line"/>
      <point x="357" y="245" type="line"/>
      <point x="197" y="245" type="line"/>
    </contour>
    <contour>
      <point x="72" y="295" type="line"/>
      <point x="220" y="370" type="line"/>
      <point x="207" y="385" type="line"/>
      <point x="57" y="306" type="line"/>
    </contour>
    <contour>
      <point x="59" y="511" type="line"/>
      <point x="72" y="524" type="line"/>
      <point x="23" y="600" type="line"/>
      <point x="10" y="587" type="line"/>
    </contour>
    <contour>
      <point x="77" y="297" type="line"/>
      <point x="217" y="297" type="line"/>
      <point x="217" y="317" type="line"/>
      <point x="77" y="317" type="line"/>
    </contour>
    <contour>
      <point x="197" y="365" type="line"/>
      <point x="357" y="365" type="line"/>
      <point x="357" y="385" type="line"/>
      <point x="197" y="385" type="line"/>
    </contour>
    <contour>
      <point x="347" y="225" type="line"/>
      <point x="360" y="237" type="line"/>
      <point x="212" y="317" type="line"/>
      <point x="197" y="306" type="line"/>
    </contour>
    <contour>
      <point x="214" y="297" type="line"/>
      <point x="360" y="370" type="line"/>
      <point x="347" y="385" type="line"/>
      <point x="197" y="306" type="line"/>
    </contour>
    <contour>
      <point x="347" y="225" type="line"/>
      <point x="367" y="225" type="line"/>
      <point x="367" y="385" type="line"/>
      <point x="347" y="385" type="line"/>
    </contour>
    <contour>
      <point x="197" y="0" type="line"/>
      <point x="217" y="0" type="line"/>
      <point x="217" y="238" type="line"/>
      <point x="197" y="238" type="line"/>
    </contour>
    <contour>
      <point x="20" y="600" type="line"/>
      <point x="20" y="580" type="line"/>
      <point x="440" y="580" type="line"/>
      <point x="440" y="600" type="line"/>
    </contour>
    <contour>
      <point x="78" y="520" type="line"/>
      <point x="63" y="509" type="line"/>
      <point x="203" y="425" type="line"/>
      <point x="216" y="440" type="line"/>
    </contour>
    <contour>
      <point x="63" y="528" type="line"/>
      <point x="63" y="508" type="line"/>
      <point x="290" y="508" type="line"/>
      <point x="290" y="528" type="line"/>
    </contour>
    <contour>
      <point x="197" y="445" type="line"/>
      <point x="197" y="425" type="line"/>
      <point x="440" y="425" type="line"/>
      <point x="440" y="445" type="line"/>
    </contour>
    <contour>
      <point x="426" y="593" type="line"/>
      <point x="269" y="525" type="line"/>
      <point x="284" y="511" type="line"/>
      <point x="443" y="580" type="line"/>
    </contour>
    <contour>
      <point x="287" y="528" type="line"/>
      <point x="269" y="519" type="line"/>
      <point x="430" y="432" type="line"/>
      <point x="443" y="447" type="line"/>
    </contour>
    <contour>
      <point x="430" y="600" type="line"/>
      <point x="430" y="425" type="line"/>
      <point x="450" y="425" type="line"/>
      <point x="450" y="600" type="line"/>
    </contour>
    <contour>
      <point x="197" y="372" type="line"/>
      <point x="217" y="372" type="line"/>
      <point x="217" y="443" type="line"/>
      <point x="197" y="443" type="line"/>
    </contour>
    <contour>
      <point x="10" y="0" type="line"/>
      <point x="217" y="0" type="line"/>
      <point x="217" y="20" type="line"/>
      <point x="10" y="20" type="line"/>
    </contour>
    <contour>
      <point x="204" y="0" type="line"/>
      <point x="217" y="13" type="line"/>
      <point x="75" y="105" type="line"/>
      <point x="62" y="92" type="line"/>
    </contour>
  </outline>
</glyph>
<glyph name="G" format="2">
  <advance width="515"/>
  <unicode hex="0047"/>
  <anchor x="255" y="0" name="bottom"/>
  <anchor x="255" y="600" name="top"/>
  <outline>
    <contour>
      <point x="485" y="462" type="line"/>
      <point x="485" y="339" type="line"/>
      <point x="505" y="339" type="line"/>
      <point x="505" y="462" type="line"/>
    </contour>
    <contour>
      <point x="505" y="339" type="line"/>
      <point x="485" y="339" type="line"/>
    </contour>
    <contour>
      <point x="361" y="585" type="line"/>
      <point x="492" y="447" type="line"/>
      <point x="505" y="462" type="line"/>
      <point x="374" y="600" type="line"/>
    </contour>
    <contour>
      <point x="505" y="462" type="line"/>
      <point x="492" y="447" type="line"/>
    </contour>
    <contour>
      <point x="280" y="339" type="line"/>
      <point x="495" y="339" type="line"/>
      <point x="495" y="359" type="line"/>
      <point x="280" y="359" type="line"/>
    </contour>
    <contour>
      <point x="310" y="435" type="line"/>
      <point x="477" y="347" type="line"/>
      <point x="491" y="361" type="line"/>
      <point x="324" y="449" type="line"/>
    </contour>
    <contour>
      <point x="495" y="467" type="line"/>
      <point x="311" y="449" type="line"/>
      <point x="315" y="429" type="line"/>
      <point x="498" y="447" type="line"/>
    </contour>
    <contour>
      <point x="319" y="447" type="line"/>
      <point x="280" y="359" type="line"/>
      <point x="293" y="344" type="line"/>
      <point x="332" y="432" type="line"/>
    </contour>
    <contour>
      <point x="133" y="0" type="line"/>
      <point x="148" y="14" type="line"/>
      <point x="20" y="149" type="line"/>
      <point x="5" y="135" type="line"/>
    </contour>
    <contour>
      <point x="24" y="133" type="line"/>
      <point x="61" y="172" type="line"/>
      <point x="55" y="189" type="line"/>
      <point x="18" y="150" type="line"/>
    </contour>
    <contour>
      <point x="141" y="7" type="line"/>
      <point x="153" y="96" type="line"/>
      <point x="136" y="106" type="line"/>
      <point x="124" y="17" type="line"/>
    </contour>
    <contour>
      <point x="133" y="0" type="line"/>
      <point x="323" y="0" type="line"/>
      <point x="323" y="20" type="line"/>
      <point x="133" y="20" type="line"/>
    </contour>
    <contour>
      <point x="139" y="84" type="line"/>
      <point x="153" y="98" type="line"/>
      <point x="63" y="187" type="line"/>
      <point x="48" y="173" type="line"/>
    </contour>
    <contour>
      <point x="5" y="135" type="line"/>
      <point x="26" y="135" type="line"/>
      <point x="26" y="466" type="line"/>
      <point x="5" y="466" type="line"/>
    </contour>
    <contour>
      <point x="64" y="169" type="line"/>
      <point x="204" y="198" type="line"/>
      <point x="198" y="214" type="line"/>
      <point x="58" y="185" type="line"/>
    </contour>
    <contour>
      <point x="139" y="84" type="line"/>
      <point x="266" y="84" type="line"/>
      <point x="266" y="103" type="line"/>
      <point x="139" y="103" type="line"/>
    </contour>
    <contour>
      <point x="149" y="91" type="line"/>
      <point x="227" y="175" type="line"/>
      <point x="212" y="187" type="line"/>
      <point x="133" y="102" type="line"/>
    </contour>
    <contour>
      <point x="314" y="11" type="line"/>
      <point x="328" y="26" type="line"/>
      <point x="266" y="98" type="line"/>
      <point x="247" y="91" type="line"/>
    </contour>
    <contour>
      <point x="48" y="173" type="line"/>
      <point x="69" y="173" type="line"/>
      <point x="69" y="438" type="line"/>
      <point x="48" y="438" type="line"/>
    </contour>
    <contour>
      <point x="254" y="88" type="line"/>
      <point x="270" y="100" type="line"/>
      <point x="263" y="184" type="line"/>
      <point x="247" y="172" type="line"/>
    </contour>
    <contour>
      <point x="57" y="430" type="line"/>
      <point x="64" y="448" type="line"/>
      <point x="26" y="470" type="line"/>
      <point x="19" y="452" type="line"/>
    </contour>
    <contour>
      <point x="20" y="452" type="line"/>
      <point x="151" y="586" type="line"/>
      <point x="136" y="600" type="line"/>
      <point x="5" y="466" type="line"/>
    </contour>
    <contour>
      <point x="62" y="425" type="line"/>
      <point x="161" y="526" type="line"/>
      <point x="148" y="539" type="line"/>
      <point x="48" y="438" type="line"/>
    </contour>
    <contour>
      <point x="216" y="437" type="line"/>
      <point x="233" y="449" type="line"/>
      <point x="159" y="531" type="line"/>
      <point x="142" y="519" type="line"/>
    </contour>
    <contour>
      <point x="143" y="522" type="line"/>
      <point x="162" y="529" type="line"/>
      <point x="155" y="592" type="line"/>
      <point x="134" y="585" type="line"/>
    </contour>
    <contour>
      <point x="149" y="520" type="line"/>
      <point x="265" y="520" type="line"/>
      <point x="265" y="539" type="line"/>
      <point x="149" y="539" type="line"/>
    </contour>
    <contour>
      <point x="136" y="582" type="line"/>
      <point x="374" y="582" type="line"/>
      <point x="374" y="600" type="line"/>
      <point x="136" y="600" type="line"/>
    </contour>
    <contour>
      <point x="196" y="395" type="line"/>
      <point x="202" y="411" type="line"/>
      <point x="65" y="447" type="line"/>
      <point x="59" y="431" type="line"/>
    </contour>
    <contour>
      <point x="189" y="207" type="line"/>
      <point x="209" y="207" type="line"/>
      <point x="209" y="407" type="line"/>
      <point x="189" y="407" type="line"/>
    </contour>
    <contour>
      <point x="210" y="167" type="line"/>
      <point x="260" y="167" type="line"/>
      <point x="260" y="185" type="line"/>
      <point x="210" y="185" type="line"/>
    </contour>
    <contour>
      <point x="215" y="434" type="line"/>
      <point x="261" y="434" type="line"/>
      <point x="261" y="452" type="line"/>
      <point x="215" y="452" type="line"/>
    </contour>
    <contour>
      <point x="261" y="167" type="line"/>
      <point x="300" y="201" type="line"/>
      <point x="283" y="214" type="line"/>
      <point x="247" y="181" type="line"/>
    </contour>
    <contour>
      <point x="280" y="203" type="line"/>
      <point x="300" y="201" type="line"/>
      <point x="300" y="279" type="line"/>
      <point x="280" y="279" type="line"/>
    </contour>
    <contour>
      <point x="285" y="399" type="line"/>
      <point x="299" y="413" type="line"/>
      <point x="261" y="452" type="line"/>
      <point x="247" y="439" type="line"/>
    </contour>
    <contour>
      <point x="315" y="435" type="line"/>
      <point x="330" y="450" type="line"/>
      <point x="265" y="539" type="line"/>
      <point x="250" y="524" type="line"/>
    </contour>
    <contour>
      <point x="263" y="431" type="line"/>
      <point x="264" y="525" type="line"/>
      <point x="247" y="529" type="line"/>
      <point x="247" y="443" type="line"/>
    </contour>
    <contour>
      <point x="261" y="520" type="line"/>
      <point x="385" y="581" type="line"/>
      <point x="369" y="593" type="line"/>
      <point x="244" y="534" type="line"/>
    </contour>
    <contour>
      <point x="266" y="84" type="line"/>
      <point x="352" y="179" type="line"/>
      <point x="338" y="193" type="line"/>
      <point x="252" y="98" type="line"/>
    </contour>
    <contour>
      <point x="280" y="342" type="line"/>
      <point x="300" y="342" type="line"/>
      <point x="300" y="424" type="line"/>
      <point x="280" y="411" type="line"/>
    </contour>
    <contour>
      <point x="280" y="258" type="line"/>
      <point x="505" y="258" type="line"/>
      <point x="505" y="279" type="line"/>
      <point x="280" y="279" type="line"/>
    </contour>
    <contour>
      <point x="323" y="0" type="line"/>
      <point x="353" y="92" type="line"/>
      <point x="341" y="106" type="line"/>
      <point x="311" y="14" type="line"/>
    </contour>
    <contour>
      <point x="485" y="268" type="line"/>
      <point x="485" y="0" type="line"/>
      <point x="505" y="0" type="line"/>
      <point x="505" y="268" type="line"/>
    </contour>
    <contour>
      <point x="339" y="85" type="line"/>
      <point x="484" y="0" type="line"/>
      <point x="498" y="16" type="line"/>
      <point x="350" y="100" type="line"/>
    </contour>
    <contour>
      <point x="210" y="171" type="line"/>
      <point x="224" y="185" type="line"/>
      <point x="202" y="216" type="line"/>
      <point x="188" y="202" type="line"/>
    </contour>
    <contour>
      <point x="204" y="393" type="line"/>
      <point x="232" y="440" type="line"/>
      <point x="216" y="449" type="line"/>
      <point x="190" y="407" type="line"/>
    </contour>
    <contour>
      <point x="350" y="175" type="line"/>
      <point x="495" y="253" type="line"/>
      <point x="481" y="267" type="line"/>
      <point x="336" y="189" type="line"/>
    </contour>
    <contour>
      <point x="336" y="83" type="line"/>
      <point x="353" y="84" type="line"/>
      <point x="353" y="183" type="line"/>
      <point x="336" y="183" type="line"/>
    </contour>
    <contour>
      <point x="337" y="177" type="line"/>
      <point x="351" y="187" type="line"/>
      <point x="305" y="267" type="line"/>
      <point x="293" y="255" type="line"/>
    </contour>
    <contour>
      <point x="288" y="401" type="line"/>
      <point x="321" y="431" type="line"/>
      <point x="315" y="447" type="line"/>
      <point x="282" y="417" type="line"/>
    </contour>
    <contour>
      <point x="334" y="170" type="line"/>
      <point x="348" y="184" type="line"/>
      <point x="298" y="213" type="line"/>
      <point x="284" y="199" type="line"/>
    </contour>
  </outline>
</glyph>
<glyph name="K" format="2">
  <advance width="578"/>
  <unicode hex="004B"/>
  <anchor x="292" y="0" name="bottom"/>
  <anchor x="292" y="600" name="top"/>
  <outline>
    <contour>
      <point x="10" y="-1" type="line"/>
      <point x="232" y="-1" type="line"/>
      <point x="232" y="19" type="line"/>
      <point x="10" y="19" type="line"/>
    </contour>
    <contour>
      <point x="23" y="-1" type="line"/>
      <point x="83" y="111" type="line"/>
      <point x="70" y="125" type="line"/>
      <point x="10" y="12" type="line"/>
    </contour>
    <contour>
      <point x="219" y="-1" type="line"/>
      <point x="232" y="12" type="line"/>
      <point x="86" y="125" type="line"/>
      <point x="73" y="111" type="line"/>
    </contour>
    <contour>
      <point x="10" y="-1" type="line"/>
      <point x="30" y="-1" type="line"/>
      <point x="30" y="600" type="line"/>
      <point x="10" y="600" type="line"/>
    </contour>
    <contour>
      <point x="68" y="109" type="line"/>
      <point x="88" y="109" type="line"/>
      <point x="88" y="490" type="line"/>
      <point x="68" y="490" type="line"/>
    </contour>
    <contour>
      <point x="212" y="-1" type="line"/>
      <point x="232" y="-1" type="line"/>
      <point x="232" y="600" type="line"/>
      <point x="212" y="600" type="line"/>
    </contour>
    <contour>
      <point x="70" y="475" type="line"/>
      <point x="83" y="488" type="line"/>
      <point x="23" y="600" type="line"/>
      <point x="10" y="587" type="line"/>
    </contour>
    <contour>
      <point x="15" y="580" type="line"/>
      <point x="232" y="580" type="line"/>
      <point x="232" y="600" type="line"/>
      <point x="15" y="600" type="line"/>
    </contour>
    <contour>
      <point x="85" y="475" type="line"/>
      <point x="231" y="587" type="line"/>
      <point x="218" y="600" type="line"/>
      <point x="72" y="488" type="line"/>
    </contour>
    <contour>
      <point x="414" y="339" type="line"/>
      <point x="573" y="600" type="line"/>
      <point x="549" y="600" type="line"/>
      <point x="396" y="350" type="line"/>
    </contour>
    <contour>
      <point x="354" y="580" type="line"/>
      <point x="559" y="580" type="line"/>
      <point x="559" y="600" type="line"/>
      <point x="362" y="600" type="line"/>
    </contour>
    <contour>
      <point x="231" y="339" type="line"/>
      <point x="382" y="598" type="line"/>
      <point x="362" y="600" type="line"/>
      <point x="225" y="363" type="line"/>
    </contour>
    <contour>
      <point x="568" y="-1" type="line"/>
      <point x="420" y="354" type="line"/>
      <point x="401" y="345" type="line"/>
      <point x="543" y="5" type="line"/>
    </contour>
    <contour>
      <point x="325" y="12" type="line"/>
      <point x="234" y="252" type="line"/>
      <point x="228" y="215" type="line"/>
      <point x="308" y="-1" type="line"/>
    </contour>
    <contour>
      <point x="328" y="96" type="line"/>
      <point x="542" y="5" type="line"/>
      <point x="554" y="19" type="line"/>
      <point x="337" y="114" type="line"/>
    </contour>
    <contour>
      <point x="308" y="-1" type="line"/>
      <point x="568" y="-1" type="line"/>
      <point x="549" y="18" type="line"/>
      <point x="308" y="18" type="line"/>
    </contour>
    <contour>
      <point x="325" y="8" type="line"/>
      <point x="343" y="96" type="line"/>
      <point x="328" y="107" type="line"/>
      <point x="306" y="13" type="line"/>
    </contour>
    <contour>
      <point x="346" y="106" type="line"/>
      <point x="257" y="322" type="line"/>
      <point x="237" y="322" type="line"/>
      <point x="329" y="95" type="line"/>
    </contour>
    <contour>
      <point x="255" y="315" type="line"/>
      <point x="383" y="531" type="line"/>
      <point x="364" y="537" type="line"/>
      <point x="237" y="322" type="line"/>
    </contour>
    <contour>
      <point x="361" y="514" type="line"/>
      <point x="559" y="581" type="line"/>
      <point x="556" y="599" type="line"/>
      <point x="365" y="535" type="line"/>
    </contour>
    <contour>
      <point x="410" y="363" type="line"/>
      <point x="247" y="329" type="line"/>
      <point x="247" y="309" type="line"/>
      <point x="421" y="345" type="line"/>
    </contour>
    <contour>
      <point x="359" y="588" type="line"/>
      <point x="358" y="519" type="line"/>
      <point x="378" y="531" type="line"/>
      <point x="377" y="593" type="line"/>
    </contour>
    <contour>
      <point x="239" y="326" type="line"/>
      <point x="220" y="246" type="line"/>
      <point x="232" y="233" type="line"/>
      <point x="255" y="317" type="line"/>
    </contour>
    <contour>
      <point x="237" y="313" type="line"/>
      <point x="251" y="325" type="line"/>
      <point x="224" y="364" type="line"/>
      <point x="218" y="344" type="line"/>
    </contour>
  </outline>
</glyph>
<glyph name="L" format="2">
  <advance width="415"/>
  <unicode hex="004C"/>
  <anchor x="180" y="0" name="bottom"/>
  <anchor x="120" y="300" name="center"/>
  <anchor x="120" y="600" name="top"/>
  <anchor x="305" y="600" name="topright"/>
  <outline>
    <contour>
      <point x="23" y="0" type="line"/>
      <point x="82" y="89" type="line"/>
      <point x="69" y="102" type="line"/>
      <point x="10" y="13" type="line"/>
    </contour>
    <contour>
      <point x="10" y="0" type="line"/>
      <point x="30" y="0" type="line"/>
      <point x="30" y="600" type="line"/>
      <point x="10" y="600" type="line"/>
    </contour>
    <contour>
      <point x="67" y="97" type="line"/>
      <point x="87" y="97" type="line"/>
      <point x="87" y="509" type="line"/>
      <point x="67" y="509" type="line"/>
    </contour>
    <contour>
      <point x="69" y="494" type="line"/>
      <point x="82" y="507" type="line"/>
      <point x="23" y="600" type="line"/>
      <point x="10" y="587" type="line"/>
    </contour>
    <contour>
      <point x="210" y="160" type="line"/>
      <point x="230" y="160" type="line"/>
      <point x="230" y="588" type="line"/>
      <point x="210" y="588" type="line"/>
    </contour>
    <contour>
      <point x="20" y="0" type="line"/>
      <point x="400" y="0" type="line"/>
      <point x="400" y="20" type="line"/>
      <point x="20" y="20" type="line"/>
    </contour>
    <contour>
      <point x="88" y="95" type="line"/>
      <point x="229" y="165" type="line"/>
      <point x="216" y="180" type="line"/>
      <point x="73" y="106" type="line"/>
    </contour>
    <contour>
      <point x="73" y="87" type="line"/>
      <point x="260" y="87" type="line"/>
      <point x="260" y="107" type="line"/>
      <point x="73" y="107" type="line"/>
    </contour>
    <contour>
      <point x="216" y="160" type="line"/>
      <point x="400" y="160" type="line"/>
      <point x="400" y="180" type="line"/>
      <point x="216" y="180" type="line"/>
    </contour>
    <contour>
      <point x="389" y="9" type="line"/>
      <point x="403" y="22" type="line"/>
      <point x="255" y="107" type="line"/>
      <point x="239" y="94" type="line"/>
    </contour>
    <contour>
      <point x="257" y="87" type="line"/>
      <point x="403" y="165" type="line"/>
      <point x="390" y="180" type="line"/>
      <point x="240" y="97" type="line"/>
    </contour>
    <contour>
      <point x="390" y="0" type="line"/>
      <point x="410" y="0" type="line"/>
      <point x="410" y="180" type="line"/>
      <point x="390" y="180" type="line"/>
    </contour>
    <contour>
      <point x="20" y="600" type="line"/>
      <point x="20" y="580" type="line"/>
      <point x="230" y="580" type="line"/>
      <point x="230" y="600" type="line"/>
    </contour>
    <contour>
      <point x="212" y="592" type="line"/>
      <point x="68" y="505" type="line"/>
      <point x="81" y="494" type="line"/>
      <point x="223" y="576" type="line"/>
    </contour>
  </outline>
</glyph>
<glyph name="M" format="2">
  <advance width="698"/>
  <unicode hex="004D"/>
  <outline>
    <contour>
      <point x="670" y="6" type="line"/>
      <point x="677" y="25" type="line"/>
      <point x="537" y="119" type="line"/>
      <point x="530" y="100" type="line"/>
    </contour>
    <contour>
      <point x="469" y="0" type="line"/>
      <point x="688" y="0" type="line"/>
      <point x="688" y="20" type="line"/>
      <point x="469" y="20" type="line"/>
    </contour>
    <contour>
      <point x="478" y="6" type="line"/>
      <point x="543" y="99" type="line"/>
      <point x="536" y="123" type="line"/>
      <point x="472" y="30" type="line"/>
    </contour>
    <contour>
      <point x="668" y="0" type="line"/>
      <point x="688" y="0" type="line"/>
      <point x="688" y="600" type="line"/>
      <point x="668" y="600" type="line"/>
    </contour>
    <contour>
      <point x="469" y="2" type="line"/>
      <point x="489" y="2" type="line"/>
      <point x="489" y="595" type="line"/>
      <point x="469" y="595" type="line"/>
    </contour>
    <contour>
      <point x="526" y="101" type="line"/>
      <point x="546" y="100" type="line"/>
      <point x="546" y="523" type="line"/>
      <point x="526" y="524" type="line"/>
    </contour>
    <contour>
      <point x="430" y="580" type="line"/>
      <point x="688" y="580" type="line"/>
      <point x="688" y="600" type="line"/>
      <point x="430" y="600" type="line"/>
    </contour>
    <contour>
      <point x="527" y="508" type="line"/>
      <point x="543" y="517" type="line"/>
      <point x="495" y="592" type="line"/>
      <point x="479" y="583" type="line"/>
    </contour>
    <contour>
      <point x="537" y="503" type="line"/>
      <point x="683" y="585" type="line"/>
      <point x="674" y="600" type="line"/>
      <point x="528" y="518" type="line"/>
    </contour>
    <contour>
      <point x="266" y="147" type="line"/>
      <point x="284" y="141" type="line"/>
      <point x="483" y="588" type="line"/>
      <point x="465" y="595" type="line"/>
    </contour>
    <contour>
      <point x="261" y="142" type="line"/>
      <point x="350" y="8" type="line"/>
      <point x="362" y="20" type="line"/>
      <point x="274" y="156" type="line"/>
    </contour>
    <contour>
      <point x="307" y="8" type="line"/>
      <point x="281" y="143" type="line"/>
      <point x="263" y="151" type="line"/>
      <point x="289" y="8" type="line"/>
    </contour>
    <contour>
      <point x="339" y="6" type="line"/>
      <point x="359" y="0" type="line"/>
      <point x="474" y="255" type="line"/>
      <point x="471" y="298" type="line"/>
    </contour>
    <contour>
      <point x="291" y="0" type="line"/>
      <point x="359" y="0" type="line"/>
      <point x="359" y="20" type="line"/>
      <point x="291" y="20" type="line"/>
    </contour>
    <contour>
      <point x="291" y="1" type="line"/>
      <point x="309" y="7" type="line"/>
      <point x="75" y="478" type="line"/>
      <point x="58" y="472" type="line"/>
    </contour>
    <contour>
      <point x="275" y="114" type="line"/>
      <point x="283" y="136" type="line"/>
      <point x="107" y="510" type="line"/>
      <point x="90" y="496" type="line"/>
    </contour>
    <contour>
      <point x="259" y="177" type="line"/>
      <point x="447" y="594" type="line"/>
      <point x="430" y="600" type="line"/>
      <point x="248" y="198" type="line"/>
    </contour>
    <contour>
      <point x="11" y="580" type="line"/>
      <point x="211" y="580" type="line"/>
      <point x="211" y="600" type="line"/>
      <point x="11" y="600" type="line"/>
    </contour>
    <contour>
      <point x="10" y="0" type="line"/>
      <point x="31" y="0" type="line"/>
      <point x="31" y="600" type="line"/>
      <point x="10" y="600" type="line"/>
    </contour>
    <contour>
      <point x="46" y="80" type="line"/>
      <point x="67" y="79" type="line"/>
      <point x="67" y="474" type="line"/>
      <point x="46" y="504" type="line"/>
    </contour>
    <contour>
      <point x="150" y="0" type="line"/>
      <point x="169" y="0" type="line"/>
      <point x="169" y="258" type="line"/>
      <point x="150" y="293" type="line"/>
    </contour>
    <contour>
      <point x="322" y="345" type="line"/>
      <point x="331" y="366" type="line"/>
      <point x="211" y="599" type="line"/>
      <point x="191" y="596" type="line"/>
    </contour>
    <contour>
      <point x="33" y="14" type="line"/>
      <point x="65" y="88" type="line"/>
      <point x="53" y="100" type="line"/>
      <point x="21" y="26" type="line"/>
    </contour>
    <contour>
      <point x="152" y="10" type="line"/>
      <point x="163" y="24" type="line"/>
      <point x="62" y="94" type="line"/>
      <point x="51" y="80" type="line"/>
    </contour>
    <contour>
      <point x="12" y="0" type="line"/>
      <point x="169" y="0" type="line"/>
      <point x="169" y="20" type="line"/>
      <point x="12" y="20" type="line"/>
    </contour>
    <contour>
      <point x="59" y="466" type="line"/>
      <point x="74" y="478" type="line"/>
      <point x="26" y="598" type="line"/>
      <point x="12" y="582" type="line"/>
    </contour>
    <contour>
      <point x="71" y="455" type="line"/>
      <point x="213" y="581" type="line"/>
      <point x="197" y="591" type="line"/>
      <point x="55" y="467" type="line"/>
    </contour>
  </outline>
</glyph>
<glyph name="O" format="2">
  <advance width="490"/>
  <unicode hex="004F"/>
  <anchor x="260" y="0" name="bottom"/>
  <anchor x="260" y="300" name="center"/>
  <anchor x="316" y="18" name="ogonek"/>
  <anchor x="240" y="600" name="top"/>
  <anchor x="40" y="600" name="topleft"/>
  <anchor x="480" y="600" name="topright"/>
  <outline>
    <contour>
      <point x="155" y="0" type="line"/>
      <point x="169" y="14" type="line"/>
      <point x="20" y="151" type="line"/>
      <point x="5" y="140" type="line"/>
    </contour>
    <contour>
      <point x="22" y="141" type="line"/>
      <point x="55" y="173" type="line"/>
      <point x="52" y="196" type="line"/>
      <point x="12" y="154" type="line"/>
    </contour>
    <contour>
      <point x="171" y="9" type="line"/>
      <point x="144" y="98" type="line"/>
      <point x="125" y="98" type="line"/>
      <point x="152" y="18" type="line"/>
    </contour>
    <contour>
      <point x="155" y="0" type="line"/>
      <point x="325" y="0" type="line"/>
      <point x="325" y="18" type="line"/>
      <point x="155" y="18" type="line"/>
    </contour>
    <contour>
      <point x="130" y="89" type="line"/>
      <point x="144" y="103" type="line"/>
      <point x="56" y="184" type="line"/>
      <point x="42" y="170" type="line"/>
    </contour>
    <contour>
      <point x="5" y="140" type="line"/>
      <point x="25" y="140" type="line"/>
      <point x="25" y="460" type="line"/>
      <point x="5" y="460" type="line"/>
    </contour>
    <contour>
      <point x="50" y="171" type="line"/>
      <point x="205" y="188" type="line"/>
      <point x="199" y="204" type="line"/>
      <point x="50" y="190" type="line"/>
    </contour>
    <contour>
      <point x="130" y="89" type="line"/>
      <point x="240" y="89" type="line"/>
      <point x="240" y="107" type="line"/>
      <point x="130" y="107" type="line"/>
    </contour>
    <contour>
      <point x="140" y="93" type="line"/>
      <point x="234" y="164" type="line"/>
      <point x="221" y="174" type="line"/>
      <point x="127" y="103" type="line"/>
    </contour>
    <contour>
      <point x="318" y="9" type="line"/>
      <point x="333" y="18" type="line"/>
      <point x="240" y="102" type="line"/>
      <point x="225" y="93" type="line"/>
    </contour>
    <contour>
      <point x="45" y="175" type="line"/>
      <point x="65" y="175" type="line"/>
      <point x="65" y="435" type="line"/>
      <point x="45" y="435" type="line"/>
    </contour>
    <contour>
      <point x="217" y="159" type="line"/>
      <point x="231" y="173" type="line"/>
      <point x="199" y="204" type="line"/>
      <point x="185" y="190" type="line"/>
    </contour>
    <contour>
      <point x="217" y="159" type="line"/>
      <point x="253" y="159" type="line"/>
      <point x="253" y="177" type="line"/>
      <point x="217" y="177" type="line"/>
    </contour>
    <contour>
      <point x="223" y="93" type="line"/>
      <point x="242" y="103" type="line"/>
      <point x="257" y="177" type="line"/>
      <point x="238" y="167" type="line"/>
    </contour>
    <contour>
      <point x="253" y="159" type="line"/>
      <point x="275" y="190" type="line"/>
      <point x="261" y="204" type="line"/>
      <point x="239" y="173" type="line"/>
    </contour>
    <contour>
      <point x="54" y="415" type="line"/>
      <point x="60" y="432" type="line"/>
      <point x="24" y="467" type="line"/>
      <point x="11" y="457" type="line"/>
    </contour>
    <contour>
      <point x="240" y="89" type="line"/>
      <point x="320" y="175" type="line"/>
      <point x="306" y="189" type="line"/>
      <point x="226" y="103" type="line"/>
    </contour>
    <contour>
      <point x="185" y="190" type="line"/>
      <point x="205" y="190" type="line"/>
      <point x="205" y="405" type="line"/>
      <point x="185" y="405" type="line"/>
    </contour>
    <contour>
      <point x="325" y="0" type="line"/>
      <point x="485" y="150" type="line"/>
      <point x="471" y="164" type="line"/>
      <point x="311" y="14" type="line"/>
    </contour>
    <contour>
      <point x="305" y="171" type="line"/>
      <point x="311" y="187" type="line"/>
      <point x="261" y="201" type="line"/>
      <point x="255" y="185" type="line"/>
    </contour>
    <contour>
      <point x="199" y="394" type="line"/>
      <point x="205" y="410" type="line"/>
      <point x="55" y="437" type="line"/>
      <point x="49" y="421" type="line"/>
    </contour>
    <contour>
      <point x="255" y="190" type="line"/>
      <point x="275" y="190" type="line"/>
      <point x="275" y="405" type="line"/>
      <point x="255" y="405" type="line"/>
    </contour>
    <contour>
      <point x="26" y="456" type="line"/>
      <point x="153" y="586" type="line"/>
      <point x="139" y="600" type="line"/>
      <point x="5" y="460" type="line"/>
    </contour>
    <contour>
      <point x="59" y="421" type="line"/>
      <point x="154" y="512" type="line"/>
      <point x="140" y="526" type="line"/>
      <point x="45" y="435" type="line"/>
    </contour>
    <contour>
      <point x="465" y="146" type="line"/>
      <point x="471" y="164" type="line"/>
      <point x="313" y="186" type="line"/>
      <point x="307" y="168" type="line"/>
    </contour>
    <contour>
      <point x="199" y="391" type="line"/>
      <point x="231" y="422" type="line"/>
      <point x="217" y="436" type="line"/>
      <point x="185" y="405" type="line"/>
    </contour>
    <contour>
      <point x="218" y="418" type="line"/>
      <point x="253" y="418" type="line"/>
      <point x="253" y="436" type="line"/>
      <point x="218" y="436" type="line"/>
    </contour>
    <contour>
      <point x="216" y="422" type="line"/>
      <point x="231" y="432" type="line"/>
      <point x="146" y="520" type="line"/>
      <point x="131" y="510" type="line"/>
    </contour>
    <contour>
      <point x="261" y="391" type="line"/>
      <point x="275" y="405" type="line"/>
      <point x="253" y="436" type="line"/>
      <point x="239" y="422" type="line"/>
    </contour>
    <contour>
      <point x="300" y="175" type="line"/>
      <point x="320" y="175" type="line"/>
      <point x="320" y="435" type="line"/>
      <point x="300" y="435" type="line"/>
    </contour>
    <contour>
      <point x="130" y="509" type="line"/>
      <point x="148" y="515" type="line"/>
      <point x="155" y="586" type="line"/>
      <point x="137" y="580" type="line"/>
    </contour>
    <contour>
      <point x="256" y="418" type="line"/>
      <point x="248" y="510" type="line"/>
      <point x="230" y="520" type="line"/>
      <point x="238" y="428" type="line"/>
    </contour>
    <contour>
      <point x="261" y="391" type="line"/>
      <point x="306" y="421" type="line"/>
      <point x="300" y="437" type="line"/>
      <point x="255" y="407" type="line"/>
    </contour>
    <contour>
      <point x="140" y="508" type="line"/>
      <point x="240" y="508" type="line"/>
      <point x="240" y="526" type="line"/>
      <point x="140" y="526" type="line"/>
    </contour>
    <contour>
      <point x="465" y="150" type="line"/>
      <point x="485" y="150" type="line"/>
      <point x="485" y="460" type="line"/>
      <point x="465" y="460" type="line"/>
    </contour>
    <contour>
      <point x="306" y="421" type="line"/>
      <point x="320" y="435" type="line"/>
      <point x="240" y="526" type="line"/>
      <point x="226" y="512" type="line"/>
    </contour>
    <contour>
      <point x="139" y="582" type="line"/>
      <point x="345" y="582" type="line"/>
      <point x="345" y="600" type="line"/>
      <point x="139" y="600" type="line"/>
    </contour>
    <contour>
      <point x="243" y="513" type="line"/>
      <point x="350" y="579" type="line"/>
      <point x="329" y="586" type="line"/>
      <point x="222" y="520" type="line"/>
    </contour>
    <contour>
      <point x="313" y="424" type="line"/>
      <point x="471" y="446" type="line"/>
      <point x="465" y="463" type="line"/>
      <point x="307" y="441" type="line"/>
    </contour>
    <contour>
      <point x="471" y="446" type="line"/>
      <point x="485" y="460" type="line"/>
      <point x="345" y="600" type="line"/>
      <point x="331" y="586" type="line"/>
    </contour>
  </outline>
</glyph>
<glyph name="P" format="2">
  <advance width="519"/>
  <unicode hex="0050"/>
  <anchor x="242" y="0" name="bottom"/>
  <anchor x="242" y="600" name="top"/>
  <outline>
    <contour>
      <point x="10" y="599" type="line"/>
      <point x="10" y="0" type="line"/>
      <point x="30" y="0" type="line"/>
      <point x="30" y="599" type="line"/>
    </contour>
    <contour>
      <point x="200" y="229" type="line"/>
      <point x="200" y="0" type="line"/>
      <point x="220" y="0" type="line"/>
      <point x="220" y="229" type="line"/>
    </contour>
    <contour>
      <point x="213" y="20" type="line"/>
      <point x="15" y="20" type="line"/>
      <point x="14" y="0" type="line"/>
      <point x="213" y="0" type="line"/>
    </contour>
    <contour>
      <point x="385" y="238" type="line"/>
      <point x="200" y="238" type="line"/>
      <point x="200" y="218" type="line"/>
      <point x="385" y="218" type="line"/>
    </contour>
    <contour>
      <point x="375" y="600" type="line"/>
      <point x="10" y="600" type="line"/>
      <point x="10" y="580" type="line"/>
      <point x="375" y="580" type="line"/>
    </contour>
    <contour>
      <point x="199" y="446" type="line"/>
      <point x="199" y="365" type="line"/>
      <point x="219" y="365" type="line"/>
      <point x="219" y="446" type="line"/>
    </contour>
    <contour>
      <point x="343" y="459" type="line"/>
      <point x="343" y="356" type="line"/>
      <point x="362" y="356" type="line"/>
      <point x="362" y="459" type="line"/>
    </contour>
    <contour>
      <point x="23" y="0" type="line"/>
      <point x="72" y="112" type="line"/>
      <point x="59" y="125" type="line"/>
      <point x="10" y="13" type="line"/>
    </contour>
    <contour>
      <point x="207" y="0" type="line"/>
      <point x="220" y="13" type="line"/>
      <point x="75" y="125" type="line"/>
      <point x="59" y="112" type="line"/>
    </contour>
    <contour>
      <point x="57" y="110" type="line"/>
      <point x="77" y="110" type="line"/>
      <point x="77" y="505" type="line"/>
      <point x="57" y="508" type="line"/>
    </contour>
    <contour>
      <point x="204" y="431" type="line"/>
      <point x="217" y="449" type="line"/>
      <point x="80" y="505" type="line"/>
      <point x="62" y="492" type="line"/>
    </contour>
    <contour>
      <point x="205" y="220" type="line"/>
      <point x="216" y="236" type="line"/>
      <point x="78" y="306" type="line"/>
      <point x="71" y="288" type="line"/>
    </contour>
    <contour>
      <point x="255" y="503" type="line"/>
      <point x="275" y="494" type="line"/>
      <point x="378" y="583" type="line"/>
      <point x="367" y="596" type="line"/>
    </contour>
    <contour>
      <point x="260" y="500" type="line"/>
      <point x="355" y="445" type="line"/>
      <point x="362" y="459" type="line"/>
      <point x="276" y="515" type="line"/>
    </contour>
    <contour>
      <point x="361" y="586" type="line"/>
      <point x="504" y="487" type="line"/>
      <point x="514" y="501" type="line"/>
      <point x="375" y="600" type="line"/>
    </contour>
    <contour>
      <point x="353" y="446" type="line"/>
      <point x="513" y="485" type="line"/>
      <point x="503" y="499" type="line"/>
      <point x="342" y="461" type="line"/>
    </contour>
    <contour>
      <point x="494" y="501" type="line"/>
      <point x="494" y="317" type="line"/>
      <point x="514" y="317" type="line"/>
      <point x="514" y="501" type="line"/>
    </contour>
    <contour>
      <point x="370" y="234" type="line"/>
      <point x="385" y="218" type="line"/>
      <point x="514" y="317" type="line"/>
      <point x="503" y="333" type="line"/>
    </contour>
    <contour>
      <point x="349" y="370" type="line"/>
      <point x="339" y="356" type="line"/>
      <point x="506" y="313" type="line"/>
      <point x="506" y="332" type="line"/>
    </contour>
    <contour>
      <point x="248" y="304" type="line"/>
      <point x="376" y="222" type="line"/>
      <point x="388" y="237" type="line"/>
      <point x="272" y="308" type="line"/>
    </contour>
    <contour>
      <point x="256" y="311" type="line"/>
      <point x="271" y="299" type="line"/>
      <point x="355" y="352" type="line"/>
      <point x="348" y="367" type="line"/>
    </contour>
    <contour>
      <point x="272" y="313" type="line"/>
      <point x="77" y="313" type="line"/>
      <point x="77" y="294" type="line"/>
      <point x="272" y="294" type="line"/>
    </contour>
    <contour>
      <point x="276" y="515" type="line"/>
      <point x="61" y="515" type="line"/>
      <point x="61" y="496" type="line"/>
      <point x="276" y="496" type="line"/>
    </contour>
    <contour>
      <point x="201" y="378" type="line"/>
      <point x="65" y="313" type="line"/>
      <point x="76" y="297" type="line"/>
      <point x="221" y="370" type="line"/>
    </contour>
    <contour>
      <point x="267" y="375" type="line"/>
      <point x="259" y="302" type="line"/>
      <point x="278" y="310" type="line"/>
      <point x="286" y="376" type="line"/>
    </contour>
    <contour>
      <point x="287" y="381" type="line"/>
      <point x="208" y="381" type="line"/>
      <point x="208" y="364" type="line"/>
      <point x="285" y="363" type="line"/>
    </contour>
    <contour>
      <point x="278" y="451" type="line"/>
      <point x="200" y="451" type="line"/>
      <point x="200" y="432" type="line"/>
      <point x="278" y="432" type="line"/>
    </contour>
    <contour>
      <point x="268" y="437" type="line"/>
      <point x="287" y="440" type="line"/>
      <point x="281" y="506" type="line"/>
      <point x="262" y="505" type="line"/>
    </contour>
    <contour>
      <point x="292" y="419" type="line"/>
      <point x="292" y="388" type="line"/>
      <point x="310" y="388" type="line"/>
      <point x="310" y="418" type="line"/>
    </contour>
    <contour>
      <point x="305" y="408" type="line"/>
      <point x="361" y="448" type="line"/>
      <point x="352" y="462" type="line"/>
      <point x="299" y="426" type="line"/>
    </contour>
    <contour>
      <point x="305" y="401" type="line"/>
      <point x="288" y="385" type="line"/>
      <point x="351" y="352" type="line"/>
      <point x="359" y="368" type="line"/>
    </contour>
    <contour>
      <point x="271" y="372" type="line"/>
      <point x="284" y="359" type="line"/>
      <point x="313" y="386" type="line"/>
      <point x="299" y="401" type="line"/>
    </contour>
    <contour>
      <point x="268" y="436" type="line"/>
      <point x="296" y="412" type="line"/>
      <point x="315" y="421" type="line"/>
      <point x="283" y="450" type="line"/>
    </contour>
    <contour>
      <point x="62" y="492" type="line"/>
      <point x="70" y="514" type="line"/>
      <point x="36" y="588" type="line"/>
      <point x="20" y="575" type="line"/>
    </contour>
  </outline>
</glyph>
<glyph name="S" format="2">
  <advance width="411"/>
  <unicode hex="0053"/>
  <anchor x="206" y="0" name="bottom"/>
  <anchor x="206" y="600" name="top"/>
  <outline>
    <contour>
      <point x="240" y="225" type="line"/>
      <point x="251" y="240" type="line"/>
      <point x="59" y="379" type="line"/>
      <point x="48" y="363" type="line"/>
    </contour>
    <contour>
      <point x="114" y="1" type="line"/>
      <point x="124" y="16" type="line"/>
      <point x="15" y="114" type="line"/>
      <point x="5" y="99" type="line"/>
    </contour>
    <contour>
      <point x="5" y="99" type="line"/>
      <point x="25" y="99" type="line"/>
      <point x="25" y="201" type="line"/>
      <point x="5" y="201" type="line"/>
    </contour>
    <contour>
      <point x="114" y="1" type="line"/>
      <point x="286" y="1" type="line"/>
      <point x="286" y="21" type="line"/>
      <point x="114" y="21" type="line"/>
    </contour>
    <contour>
      <point x="133" y="82" type="line"/>
      <point x="142" y="102" type="line"/>
      <point x="58" y="162" type="line"/>
      <point x="47" y="145" type="line"/>
    </contour>
    <contour>
      <point x="124" y="100" type="line"/>
      <point x="142" y="91" type="line"/>
      <point x="184" y="148" type="line"/>
      <point x="168" y="158" type="line"/>
    </contour>
    <contour>
      <point x="47" y="145" type="line"/>
      <point x="68" y="145" type="line"/>
      <point x="68" y="201" type="line"/>
      <point x="47" y="201" type="line"/>
    </contour>
    <contour>
      <point x="9" y="181" type="line"/>
      <point x="151" y="181" type="line"/>
      <point x="151" y="201" type="line"/>
      <point x="9" y="201" type="line"/>
    </contour>
    <contour>
      <point x="137" y="86" type="line"/>
      <point x="198" y="86" type="line"/>
      <point x="198" y="106" type="line"/>
      <point x="137" y="106" type="line"/>
    </contour>
    <contour>
      <point x="278" y="3" type="line"/>
      <point x="295" y="11" type="line"/>
      <point x="203" y="102" type="line"/>
      <point x="186" y="94" type="line"/>
    </contour>
    <contour>
      <point x="166" y="140" type="line"/>
      <point x="185" y="157" type="line"/>
      <point x="142" y="181" type="line"/>
      <point x="131" y="166" type="line"/>
    </contour>
    <contour>
      <point x="131" y="166" type="line"/>
      <point x="151" y="166" type="line"/>
      <point x="151" y="200" type="line"/>
      <point x="131" y="200" type="line"/>
    </contour>
    <contour>
      <point x="164" y="141" type="line"/>
      <point x="183" y="141" type="line"/>
      <point x="183" y="162" type="line"/>
      <point x="164" y="162" type="line"/>
    </contour>
    <contour>
      <point x="183" y="141" type="line"/>
      <point x="207" y="161" type="line"/>
      <point x="196" y="177" type="line"/>
      <point x="164" y="158" type="line"/>
    </contour>
    <contour>
      <point x="197" y="192" type="line"/>
      <point x="207" y="207" type="line"/>
      <point x="15" y="349" type="line"/>
      <point x="5" y="334" type="line"/>
    </contour>
    <contour>
      <point x="187" y="161" type="line"/>
      <point x="207" y="161" type="line"/>
      <point x="207" y="207" type="line"/>
      <point x="187" y="207" type="line"/>
    </contour>
    <contour>
      <point x="198" y="86" type="line"/>
      <point x="253" y="150" type="line"/>
      <point x="242" y="169" type="line"/>
      <point x="187" y="102" type="line"/>
    </contour>
    <contour>
      <point x="5" y="334" type="line"/>
      <point x="25" y="334" type="line"/>
      <point x="25" y="485" type="line"/>
      <point x="5" y="485" type="line"/>
    </contour>
    <contour>
      <point x="286" y="1" type="line"/>
      <point x="406" y="122" type="line"/>
      <point x="396" y="137" type="line"/>
      <point x="274" y="17" type="line"/>
    </contour>
    <contour>
      <point x="394" y="115" type="line"/>
      <point x="399" y="133" type="line"/>
      <point x="235" y="166" type="line"/>
      <point x="230" y="147" type="line"/>
    </contour>
    <contour>
      <point x="231" y="154" type="line"/>
      <point x="252" y="154" type="line"/>
      <point x="251" y="242" type="line"/>
      <point x="230" y="242" type="line"/>
    </contour>
    <contour>
      <point x="48" y="363" type="line"/>
      <point x="69" y="363" type="line"/>
      <point x="69" y="469" type="line"/>
      <point x="48" y="469" type="line"/>
    </contour>
    <contour>
      <point x="67" y="360" type="line"/>
      <point x="221" y="404" type="line"/>
      <point x="215" y="420" type="line"/>
      <point x="61" y="377" type="line"/>
    </contour>
    <contour>
      <point x="217" y="429" type="line"/>
      <point x="220" y="446" type="line"/>
      <point x="63" y="474" type="line"/>
      <point x="59" y="457" type="line"/>
    </contour>
    <contour>
      <point x="16" y="469" type="line"/>
      <point x="160" y="584" type="line"/>
      <point x="148" y="600" type="line"/>
      <point x="5" y="485" type="line"/>
    </contour>
    <contour>
      <point x="233" y="226" type="line"/>
      <point x="398" y="273" type="line"/>
      <point x="391" y="290" type="line"/>
      <point x="226" y="243" type="line"/>
    </contour>
    <contour>
      <point x="386" y="122" type="line"/>
      <point x="406" y="122" type="line"/>
      <point x="406" y="284" type="line"/>
      <point x="386" y="284" type="line"/>
    </contour>
    <contour>
      <point x="200" y="406" type="line"/>
      <point x="220" y="406" type="line"/>
      <point x="220" y="448" type="line"/>
      <point x="200" y="448" type="line"/>
    </contour>
    <contour>
      <point x="59" y="454" type="line"/>
      <point x="162" y="529" type="line"/>
      <point x="151" y="544" type="line"/>
      <point x="48" y="469" type="line"/>
    </contour>
    <contour>
      <point x="396" y="269" type="line"/>
      <point x="406" y="284" type="line"/>
      <point x="210" y="421" type="line"/>
      <point x="200" y="405" type="line"/>
    </contour>
    <contour>
      <point x="213" y="432" type="line"/>
      <point x="242" y="455" type="line"/>
      <point x="228" y="467" type="line"/>
      <point x="202" y="447" type="line"/>
    </contour>
    <contour>
      <point x="228" y="446" type="line"/>
      <point x="250" y="447" type="line"/>
      <point x="244" y="467" type="line"/>
      <point x="228" y="467" type="line"/>
    </contour>
    <contour>
      <point x="244" y="411" type="line"/>
      <point x="265" y="411" type="line"/>
      <point x="265" y="444" type="line"/>
      <point x="244" y="444" type="line"/>
    </contour>
    <contour>
      <point x="256" y="429" type="line"/>
      <point x="267" y="444" type="line"/>
      <point x="244" y="467" type="line"/>
      <point x="232" y="451" type="line"/>
    </contour>
    <contour>
      <point x="232" y="452" type="line"/>
      <point x="256" y="449" type="line"/>
      <point x="215" y="535" type="line"/>
      <point x="194" y="535" type="line"/>
    </contour>
    <contour>
      <point x="151" y="524" type="line"/>
      <point x="210" y="525" type="line"/>
      <point x="210" y="544" type="line"/>
      <point x="151" y="544" type="line"/>
    </contour>
    <contour>
      <point x="244" y="411" type="line"/>
      <point x="396" y="411" type="line"/>
      <point x="396" y="431" type="line"/>
      <point x="244" y="431" type="line"/>
    </contour>
    <contour>
      <point x="295" y="465" type="line"/>
      <point x="310" y="475" type="line"/>
      <point x="210" y="544" type="line"/>
      <point x="197" y="531" type="line"/>
    </contour>
    <contour>
      <point x="148" y="580" type="line"/>
      <point x="249" y="580" type="line"/>
      <point x="249" y="600" type="line"/>
      <point x="148" y="600" type="line"/>
    </contour>
    <contour>
      <point x="296" y="477" type="line"/>
      <point x="305" y="462" type="line"/>
      <point x="387" y="485" type="line"/>
      <point x="380" y="501" type="line"/>
    </contour>
    <contour>
      <point x="214" y="531" type="line"/>
      <point x="259" y="589" type="line"/>
      <point x="240" y="595" type="line"/>
      <point x="195" y="537" type="line"/>
    </contour>
    <contour>
      <point x="376" y="411" type="line"/>
      <point x="396" y="411" type="line"/>
      <point x="396" y="493" type="line"/>
      <point x="376" y="493" type="line"/>
    </contour>
    <contour>
      <point x="386" y="478" type="line"/>
      <point x="396" y="493" type="line"/>
      <point x="249" y="600" type="line"/>
      <point x="239" y="585" type="line"/>
    </contour>
    <contour>
      <point x="142" y="91" type="line"/>
      <point x="124" y="100" type="line"/>
      <point x="111" y="17" type="line"/>
      <point x="130" y="11" type="line"/>
    </contour>
    <contour>
      <point x="305" y="462" type="line"/>
      <point x="296" y="477" type="line"/>
      <point x="251" y="446" type="line"/>
      <point x="259" y="430" type="line"/>
    </contour>
    <contour>
      <point x="54" y="457" type="line"/>
      <point x="57" y="474" type="line"/>
      <point x="15" y="486" type="line"/>
      <point x="11" y="469" type="line"/>
    </contour>
    <contour>
      <point x="15" y="335" type="line"/>
      <point x="60" y="360" type="line"/>
      <point x="54" y="376" type="line"/>
      <point x="9" y="352" type="line"/>
    </contour>
    <contour>
      <point x="196" y="197" type="line"/>
      <point x="245" y="232" type="line"/>
      <point x="239" y="249" type="line"/>
      <point x="190" y="215" type="line"/>
    </contour>
    <contour>
      <point x="241" y="143" type="line"/>
      <point x="246" y="161" type="line"/>
      <point x="192" y="171" type="line"/>
      <point x="187" y="152" type="line"/>
    </contour>
  </outline>
</glyph>
<glyph name="X" format="2">
  <advance width="589"/>
  <unicode hex="0058"/>
  <outline>
    <contour>
      <point x="552" y="0" type="line"/>
      <point x="574" y="0" type="line"/>
      <point x="395" y="335" type="line"/>
      <point x="381" y="321" type="line"/>
    </contour>
    <contour>
      <point x="22" y="0" type="line"/>
      <point x="186" y="0" type="line"/>
      <point x="186" y="20" type="line"/>
      <point x="22" y="20" type="line"/>
    </contour>
    <contour>
      <point x="42" y="5" type="line"/>
      <point x="138" y="97" type="line"/>
      <point x="125" y="110" type="line"/>
      <point x="29" y="18" type="line"/>
    </contour>
    <contour>
      <point x="28" y="0" type="line"/>
      <point x="195" y="264" type="line"/>
      <point x="180" y="276" type="line"/>
      <point x="5" y="0" type="line"/>
    </contour>
    <contour>
      <point x="175" y="4" type="line"/>
      <point x="190" y="16" type="line"/>
      <point x="134" y="112" type="line"/>
      <point x="121" y="99" type="line"/>
    </contour>
    <contour>
      <point x="187" y="0" type="line"/>
      <point x="262" y="127" type="line"/>
      <point x="253" y="146" type="line"/>
      <point x="163" y="0" type="line"/>
    </contour>
    <contour>
      <point x="317" y="0" type="line"/>
      <point x="331" y="14" type="line"/>
      <point x="218" y="234" type="line"/>
      <point x="205" y="221" type="line"/>
    </contour>
    <contour>
      <point x="323" y="5" type="line"/>
      <point x="357" y="94" type="line"/>
      <point x="344" y="107" type="line"/>
      <point x="310" y="18" type="line"/>
    </contour>
    <contour>
      <point x="133" y="87" type="line"/>
      <point x="247" y="275" type="line"/>
      <point x="233" y="289" type="line"/>
      <point x="115" y="98" type="line"/>
    </contour>
    <contour>
      <point x="317" y="0" type="line"/>
      <point x="562" y="0" type="line"/>
      <point x="562" y="20" type="line"/>
      <point x="317" y="20" type="line"/>
    </contour>
    <contour>
      <point x="181" y="258" type="line"/>
      <point x="199" y="268" type="line"/>
      <point x="28" y="600" type="line"/>
      <point x="6" y="600" type="line"/>
    </contour>
    <contour>
      <point x="547" y="7" type="line"/>
      <point x="559" y="21" type="line"/>
      <point x="350" y="111" type="line"/>
      <point x="337" y="98" type="line"/>
    </contour>
    <contour>
      <point x="190" y="259" type="line"/>
      <point x="258" y="287" type="line"/>
      <point x="245" y="300" type="line"/>
      <point x="177" y="272" type="line"/>
    </contour>
    <contour>
      <point x="342" y="87" type="line"/>
      <point x="356" y="101" type="line"/>
      <point x="250" y="299" type="line"/>
      <point x="236" y="285" type="line"/>
    </contour>
    <contour>
      <point x="240" y="270" type="line"/>
      <point x="254" y="284" type="line"/>
      <point x="138" y="508" type="line"/>
      <point x="121" y="499" type="line"/>
    </contour>
    <contour>
      <point x="133" y="486" type="line"/>
      <point x="146" y="502" type="line"/>
      <point x="39" y="589" type="line"/>
      <point x="26" y="573" type="line"/>
    </contour>
    <contour>
      <point x="244" y="279" type="line"/>
      <point x="398" y="318" type="line"/>
      <point x="385" y="334" type="line"/>
      <point x="231" y="292" type="line"/>
    </contour>
    <contour>
      <point x="17" y="580" type="line"/>
      <point x="253" y="580" type="line"/>
      <point x="253" y="600" type="line"/>
      <point x="17" y="600" type="line"/>
    </contour>
    <contour>
      <point x="135" y="490" type="line"/>
      <point x="253" y="583" type="line"/>
      <point x="240" y="596" type="line"/>
      <point x="122" y="503" type="line"/>
    </contour>
    <contour>
      <point x="249" y="279" type="line"/>
      <point x="404" y="509" type="line"/>
      <point x="390" y="523" type="line"/>
      <point x="234" y="290" type="line"/>
    </contour>
    <contour>
      <point x="218" y="333" type="line"/>
      <point x="392" y="586" type="line"/>
      <point x="378" y="600" type="line"/>
      <point x="208" y="355" type="line"/>
    </contour>
    <contour>
      <point x="299" y="470" type="line"/>
      <point x="313" y="484" type="line"/>
      <point x="253" y="600" type="line"/>
      <point x="239" y="586" type="line"/>
    </contour>
    <contour>
      <point x="398" y="322" type="line"/>
      <point x="584" y="600" type="line"/>
      <point x="561" y="600" type="line"/>
      <point x="375" y="323" type="line"/>
    </contour>
    <contour>
      <point x="386" y="505" type="line"/>
      <point x="405" y="518" type="line"/>
      <point x="392" y="594" type="line"/>
      <point x="373" y="581" type="line"/>
    </contour>
    <contour>
      <point x="399" y="506" type="line"/>
      <point x="564" y="577" type="line"/>
      <point x="551" y="595" type="line"/>
      <point x="392" y="528" type="line"/>
    </contour>
    <contour>
      <point x="378" y="580" type="line"/>
      <point x="568" y="580" type="line"/>
      <point x="568" y="600" type="line"/>
      <point x="378" y="600" type="line"/>
    </contour>
  </outline>
</glyph>
<glyph name="Y" format="2">
  <advance width="573"/>
  <unicode hex="0059"/>
  <anchor x="287" y="0" name="bottom"/>
  <anchor x="287" y="600" name="top"/>
  <anchor x="17" y="600" name="topleft"/>
  <outline>
    <contour>
      <point x="172" y="186" type="line"/>
      <point x="190" y="195" type="line"/>
      <point x="23" y="600" type="line"/>
      <point x="2" y="600" type="line"/>
    </contour>
    <contour>
      <point x="169" y="0" type="line"/>
      <point x="189" y="0" type="line"/>
      <point x="189" y="198" type="line"/>
      <point x="169" y="198" type="line"/>
    </contour>
    <contour>
      <point x="182" y="0" type="line"/>
      <point x="248" y="117" type="line"/>
      <point x="235" y="130" type="line"/>
      <point x="169" y="13" type="line"/>
    </contour>
    <contour>
      <point x="169" y="0" type="line"/>
      <point x="409" y="0" type="line"/>
      <point x="409" y="20" type="line"/>
      <point x="169" y="20" type="line"/>
    </contour>
    <contour>
      <point x="242" y="126" type="line"/>
      <point x="252" y="144" type="line"/>
      <point x="179" y="214" type="line"/>
      <point x="168" y="196" type="line"/>
    </contour>
    <contour>
      <point x="387" y="8" type="line"/>
      <point x="401" y="22" type="line"/>
      <point x="252" y="131" type="line"/>
      <point x="238" y="117" type="line"/>
    </contour>
    <contour>
      <point x="233" y="119" type="line"/>
      <point x="253" y="119" type="line"/>
      <point x="253" y="144" type="line"/>
      <point x="233" y="144" type="line"/>
    </contour>
    <contour>
      <point x="389" y="0" type="line"/>
      <point x="409" y="0" type="line"/>
      <point x="409" y="204" type="line"/>
      <point x="389" y="204" type="line"/>
    </contour>
    <contour>
      <point x="246" y="127" type="line"/>
      <point x="408" y="198" type="line"/>
      <point x="399" y="215" type="line"/>
      <point x="235" y="142" type="line"/>
    </contour>
    <contour>
      <point x="234" y="131" type="line"/>
      <point x="251" y="144" type="line"/>
      <point x="100" y="516" type="line"/>
      <point x="79" y="512" type="line"/>
    </contour>
    <contour>
      <point x="220" y="207" type="line"/>
      <point x="370" y="591" type="line"/>
      <point x="351" y="600" type="line"/>
      <point x="206" y="228" type="line"/>
    </contour>
    <contour>
      <point x="86" y="500" type="line"/>
      <point x="100" y="517" type="line"/>
      <point x="30" y="590" type="line"/>
      <point x="14" y="575" type="line"/>
    </contour>
    <contour>
      <point x="258" y="139" type="line"/>
      <point x="411" y="520" type="line"/>
      <point x="392" y="527" type="line"/>
      <point x="240" y="147" type="line"/>
    </contour>
    <contour>
      <point x="20" y="580" type="line"/>
      <point x="229" y="580" type="line"/>
      <point x="229" y="600" type="line"/>
      <point x="20" y="600" type="line"/>
    </contour>
    <contour>
      <point x="92" y="503" type="line"/>
      <point x="230" y="581" type="line"/>
      <point x="218" y="597" type="line"/>
      <point x="83" y="522" type="line"/>
    </contour>
    <contour>
      <point x="282" y="413" type="line"/>
      <point x="301" y="421" type="line"/>
      <point x="229" y="600" type="line"/>
      <point x="210" y="591" type="line"/>
    </contour>
    <contour>
      <point x="406" y="187" type="line"/>
      <point x="571" y="600" type="line"/>
      <point x="551" y="600" type="line"/>
      <point x="387" y="195" type="line"/>
    </contour>
    <contour>
      <point x="397" y="505" type="line"/>
      <point x="410" y="522" type="line"/>
      <point x="358" y="592" type="line"/>
      <point x="344" y="577" type="line"/>
    </contour>
    <contour>
      <point x="403" y="510" type="line"/>
      <point x="559" y="576" type="line"/>
      <point x="548" y="592" type="line"/>
      <point x="397" y="530" type="line"/>
    </contour>
    <contour>
      <point x="351" y="580" type="line"/>
      <point x="562" y="580" type="line"/>
      <point x="562" y="600" type="line"/>
      <point x="351" y="600" type="line"/>
    </contour>
  </outline>
</glyph>
<glyph name="backslash" format="2">
  <advance width="352"/>
  <unicode hex="005C"/>
  <outline>
    <contour>
      <point x="334" y="-40" type="line"/>
      <point x="352" y="-40" type="line"/>
      <point x="98" y="640" type="line"/>
      <point x="81" y="640" type="line"/>
    </contour>
    <contour>
      <point x="253" y="-40" type="line"/>
      <point x="271" y="-40" type="line"/>
      <point x="18" y="640" type="line"/>
      <point x="0" y="640" type="line"/>
    </contour>
    <contour>
      <point x="56" y="575" type="line"/>
      <point x="101" y="625" type="line"/>
      <point x="87" y="640" type="line"/>
      <point x="44" y="590" type="line"/>
    </contour>
    <contour>
      <point x="51" y="574" type="line"/>
      <point x="57" y="589" type="line"/>
      <point x="13" y="640" type="line"/>
      <point x="7" y="624" type="line"/>
    </contour>
    <contour>
      <point x="98" y="620" type="line"/>
      <point x="98" y="640" type="line"/>
      <point x="7" y="640" type="line"/>
      <point x="7" y="620" type="line"/>
    </contour>
    <contour>
      <point x="262" y="25" type="line"/>
      <point x="251" y="-25" type="line"/>
      <point x="265" y="-40" type="line"/>
      <point x="274" y="10" type="line"/>
    </contour>
    <contour>
      <point x="267" y="26" type="line"/>
      <point x="260" y="11" type="line"/>
      <point x="339" y="-40" type="line"/>
      <point x="345" y="-24" type="line"/>
    </contour>
    <contour>
      <point x="253" y="-20" type="line"/>
      <point x="253" y="-40" type="line"/>
      <point x="344" y="-40" type="line"/>
      <point x="344" y="-20" type="line"/>
    </contour>
    <contour>
      <point x="260" y="4" type="line"/>
      <point x="275" y="15" type="line"/>
      <point x="55" y="598" type="line"/>
      <point x="40" y="592" type="line"/>
    </contour>
  </outline>
</glyph>
<glyph name="AE" format="2">
  <advance width="731"/>
  <unicode hex="00C6"/>
  <anchor x="366" y="0" name="bottom"/>
  <anchor x="387" y="600" name="top"/>
  <outline>
    <contour>
      <point x="5" y="0" type="line"/>
      <point x="25" y="0" type="line"/>
      <point x="218" y="595" type="line"/>
      <point x="199" y="600" type="line"/>
    </contour>
    <contour>
      <point x="11" y="0" type="line"/>
      <point x="175" y="0" type="line"/>
      <point x="175" y="20" type="line"/>
      <point x="11" y="20" type="line"/>
    </contour>
    <contour>
      <point x="26" y="1" type="line"/>
      <point x="70" y="80" type="line"/>
      <point x="55" y="93" type="line"/>
      <point x="12" y="15" type="line"/>
    </contour>
    <contour>
      <point x="164" y="1" type="line"/>
      <point x="178" y="15" type="line"/>
      <point x="75" y="93" type="line"/>
      <point x="60" y="80" type="line"/>
    </contour>
    <contour>
      <point x="175" y="0" type="line"/>
      <point x="199" y="91" type="line"/>
      <point x="180" y="96" type="line"/>
      <point x="156" y="5" type="line"/>
    </contour>
    <contour>
      <point x="184" y="80" type="line"/>
      <point x="198" y="94" type="line"/>
      <point x="99" y="173" type="line"/>
      <point x="84" y="160" type="line"/>
    </contour>
    <contour>
      <point x="187" y="80" type="line"/>
      <point x="292" y="80" type="line"/>
      <point x="292" y="100" type="line"/>
      <point x="187" y="100" type="line"/>
    </contour>
    <contour>
      <point x="276" y="0" type="line"/>
      <point x="296" y="0" type="line"/>
      <point x="296" y="94" type="line"/>
      <point x="276" y="94" type="line"/>
    </contour>
    <contour>
      <point x="97" y="166" type="line"/>
      <point x="241" y="200" type="line"/>
      <point x="233" y="218" type="line"/>
      <point x="89" y="184" type="line"/>
    </contour>
    <contour>
      <point x="289" y="0" type="line"/>
      <point x="341" y="89" type="line"/>
      <point x="328" y="102" type="line"/>
      <point x="276" y="13" type="line"/>
    </contour>
    <contour>
      <point x="90" y="162" type="line"/>
      <point x="331" y="162" type="line"/>
      <point x="331" y="182" type="line"/>
      <point x="90" y="182" type="line"/>
    </contour>
    <contour>
      <point x="290" y="80" type="line"/>
      <point x="341" y="161" type="line"/>
      <point x="325" y="174" type="line"/>
      <point x="276" y="94" type="line"/>
    </contour>
    <contour>
      <point x="233" y="198" type="line"/>
      <point x="286" y="198" type="line"/>
      <point x="286" y="218" type="line"/>
      <point x="233" y="218" type="line"/>
    </contour>
    <contour>
      <point x="71" y="80" type="line"/>
      <point x="216" y="538" type="line"/>
      <point x="197" y="543" type="line"/>
      <point x="52" y="85" type="line"/>
    </contour>
    <contour>
      <point x="286" y="0" type="line"/>
      <point x="716" y="0" type="line"/>
      <point x="716" y="20" type="line"/>
      <point x="286" y="20" type="line"/>
    </contour>
    <contour>
      <point x="327" y="168" type="line"/>
      <point x="336" y="186" type="line"/>
      <point x="286" y="218" type="line"/>
      <point x="277" y="200" type="line"/>
    </contour>
    <contour>
      <point x="296" y="204" type="line"/>
      <point x="296" y="401" type="line"/>
      <point x="276" y="385" type="line"/>
      <point x="276" y="205" type="line"/>
    </contour>
    <contour>
      <point x="347" y="95" type="line"/>
      <point x="485" y="165" type="line"/>
      <point x="472" y="180" type="line"/>
      <point x="332" y="106" type="line"/>
    </contour>
    <contour>
      <point x="332" y="87" type="line"/>
      <point x="566" y="87" type="line"/>
      <point x="566" y="107" type="line"/>
      <point x="332" y="107" type="line"/>
    </contour>
    <contour>
      <point x="235" y="200" type="line"/>
      <point x="355" y="595" type="line"/>
      <point x="336" y="600" type="line"/>
      <point x="216" y="206" type="line"/>
    </contour>
    <contour>
      <point x="326" y="97" type="line"/>
      <point x="346" y="97" type="line"/>
      <point x="346" y="521" type="line"/>
      <point x="326" y="521" type="line"/>
    </contour>
    <contour>
      <point x="466" y="172" type="line"/>
      <point x="486" y="172" type="line"/>
      <point x="486" y="238" type="line"/>
      <point x="466" y="238" type="line"/>
    </contour>
    <contour>
      <point x="706" y="10" type="line"/>
      <point x="719" y="22" type="line"/>
      <point x="561" y="107" type="line"/>
      <point x="546" y="96" type="line"/>
    </contour>
    <contour>
      <point x="476" y="223" type="line"/>
      <point x="489" y="237" type="line"/>
      <point x="348" y="323" type="line"/>
      <point x="333" y="308" type="line"/>
    </contour>
    <contour>
      <point x="197" y="524" type="line"/>
      <point x="214" y="534" type="line"/>
      <point x="215" y="597" type="line"/>
      <point x="197" y="588" type="line"/>
    </contour>
    <contour>
      <point x="337" y="307" type="line"/>
      <point x="482" y="307" type="line"/>
      <point x="482" y="327" type="line"/>
      <point x="337" y="327" type="line"/>
    </contour>
    <contour>
      <point x="472" y="160" type="line"/>
      <point x="716" y="160" type="line"/>
      <point x="716" y="180" type="line"/>
      <point x="472" y="180" type="line"/>
    </contour>
    <contour>
      <point x="346" y="313" type="line"/>
      <point x="489" y="370" type="line"/>
      <point x="476" y="385" type="line"/>
      <point x="331" y="327" type="line"/>
    </contour>
    <contour>
      <point x="209" y="524" type="line"/>
      <point x="346" y="584" type="line"/>
      <point x="331" y="600" type="line"/>
      <point x="202" y="543" type="line"/>
    </contour>
    <contour>
      <point x="563" y="87" type="line"/>
      <point x="719" y="165" type="line"/>
      <point x="706" y="180" type="line"/>
      <point x="546" y="96" type="line"/>
    </contour>
    <contour>
      <point x="476" y="225" type="line"/>
      <point x="626" y="225" type="line"/>
      <point x="626" y="245" type="line"/>
      <point x="476" y="245" type="line"/>
    </contour>
    <contour>
      <point x="199" y="580" type="line"/>
      <point x="365" y="580" type="line"/>
      <point x="365" y="600" type="line"/>
      <point x="199" y="600" type="line"/>
    </contour>
    <contour>
      <point x="616" y="225" type="line"/>
      <point x="629" y="237" type="line"/>
      <point x="472" y="325" type="line"/>
      <point x="457" y="312" type="line"/>
    </contour>
    <contour>
      <point x="706" y="0" type="line"/>
      <point x="726" y="0" type="line"/>
      <point x="726" y="180" type="line"/>
      <point x="706" y="180" type="line"/>
    </contour>
    <contour>
      <point x="472" y="420" type="line"/>
      <point x="485" y="435" type="line"/>
      <point x="347" y="515" type="line"/>
      <point x="332" y="504" type="line"/>
    </contour>
    <contour>
      <point x="466" y="365" type="line"/>
      <point x="486" y="365" type="line"/>
      <point x="486" y="440" type="line"/>
      <point x="466" y="440" type="line"/>
    </contour>
    <contour>
      <point x="341" y="519" type="line"/>
      <point x="355" y="595" type="line"/>
      <point x="338" y="592" type="line"/>
      <point x="326" y="521" type="line"/>
    </contour>
    <contour>
      <point x="473" y="309" type="line"/>
      <point x="629" y="370" type="line"/>
      <point x="616" y="385" type="line"/>
      <point x="460" y="325" type="line"/>
    </contour>
    <contour>
      <point x="616" y="225" type="line"/>
      <point x="636" y="225" type="line"/>
      <point x="636" y="385" type="line"/>
      <point x="616" y="385" type="line"/>
    </contour>
    <contour>
      <point x="466" y="365" type="line"/>
      <point x="636" y="365" type="line"/>
      <point x="636" y="385" type="line"/>
      <point x="466" y="385" type="line"/>
    </contour>
    <contour>
      <point x="332" y="503" type="line"/>
      <point x="566" y="503" type="line"/>
      <point x="566" y="523" type="line"/>
      <point x="332" y="523" type="line"/>
    </contour>
    <contour>
      <point x="472" y="420" type="line"/>
      <point x="716" y="420" type="line"/>
      <point x="716" y="440" type="line"/>
      <point x="472" y="440" type="line"/>
    </contour>
    <contour>
      <point x="316" y="580" type="line"/>
      <point x="716" y="580" type="line"/>
      <point x="716" y="600" type="line"/>
      <point x="316" y="600" type="line"/>
    </contour>
    <contour>
      <point x="706" y="427" type="line"/>
      <point x="719" y="442" type="line"/>
      <point x="563" y="523" type="line"/>
      <point x="545" y="514" type="line"/>
    </contour>
    <contour>
      <point x="560" y="506" type="line"/>
      <point x="719" y="580" type="line"/>
      <point x="702" y="593" type="line"/>
      <point x="545" y="520" type="line"/>
    </contour>
    <contour>
      <point x="706" y="420" type="line"/>
      <point x="726" y="420" type="line"/>
      <point x="726" y="600" type="line"/>
      <point x="706" y="600" type="line"/>
    </contour>
  </outline>
</glyph>
<glyph name="Hbar" format="2">
  <advance width="546"/>
  <unicode hex="0126"/>
  <outline>
    <contour>
      <point x="24" y="0" type="line"/>
      <point x="244" y="0" type="line"/>
      <point x="244" y="20" type="line"/>
      <point x="24" y="20" type="line"/>
    </contour>
    <contour>
      <point x="37" y="0" type="line"/>
      <point x="97" y="92" type="line"/>
      <point x="84" y="105" type="line"/>
      <point x="24" y="13" type="line"/>
    </contour>
    <contour>
      <point x="24" y="0" type="line"/>
      <point x="44" y="0" type="line"/>
      <point x="44" y="380" type="line"/>
      <point x="24" y="380" type="line"/>
    </contour>
    <contour>
      <point x="231" y="0" type="line"/>
      <point x="244" y="13" type="line"/>
      <point x="100" y="105" type="line"/>
      <point x="87" y="92" type="line"/>
    </contour>
    <contour>
      <point x="224" y="0" type="line"/>
      <point x="244" y="0" type="line"/>
      <point x="244" y="228" type="line"/>
      <point x="224" y="228" type="line"/>
    </contour>
    <contour>
      <point x="82" y="90" type="line"/>
      <point x="102" y="90" type="line"/>
      <point x="102" y="510" type="line"/>
      <point x="82" y="510" type="line"/>
    </contour>
    <contour>
      <point x="302" y="0" type="line"/>
      <point x="322" y="0" type="line"/>
      <point x="322" y="232" type="line"/>
      <point x="302" y="232" type="line"/>
    </contour>
    <contour>
      <point x="234" y="220" type="line"/>
      <point x="247" y="232" type="line"/>
      <point x="97" y="320" type="line"/>
      <point x="82" y="309" type="line"/>
    </contour>
    <contour>
      <point x="302" y="0" type="line"/>
      <point x="522" y="0" type="line"/>
      <point x="522" y="20" type="line"/>
      <point x="302" y="20" type="line"/>
    </contour>
    <contour>
      <point x="315" y="0" type="line"/>
      <point x="372" y="92" type="line"/>
      <point x="359" y="105" type="line"/>
      <point x="302" y="13" type="line"/>
    </contour>
    <contour>
      <point x="229" y="220" type="line"/>
      <point x="316" y="220" type="line"/>
      <point x="316" y="240" type="line"/>
      <point x="229" y="240" type="line"/>
    </contour>
    <contour>
      <point x="97" y="298" type="line"/>
      <point x="231" y="373" type="line"/>
      <point x="218" y="388" type="line"/>
      <point x="82" y="309" type="line"/>
    </contour>
    <contour>
      <point x="509" y="0" type="line"/>
      <point x="522" y="13" type="line"/>
      <point x="375" y="105" type="line"/>
      <point x="362" y="92" type="line"/>
    </contour>
    <contour>
      <point x="84" y="495" type="line"/>
      <point x="97" y="508" type="line"/>
      <point x="37" y="600" type="line"/>
      <point x="24" y="587" type="line"/>
    </contour>
    <contour>
      <point x="102" y="300" type="line"/>
      <point x="361" y="300" type="line"/>
      <point x="361" y="320" type="line"/>
      <point x="102" y="320" type="line"/>
    </contour>
    <contour>
      <point x="316" y="220" type="line"/>
      <point x="377" y="311" type="line"/>
      <point x="363" y="322" type="line"/>
      <point x="303" y="234" type="line"/>
    </contour>
    <contour>
      <point x="29" y="580" type="line"/>
      <point x="244" y="580" type="line"/>
      <point x="244" y="600" type="line"/>
      <point x="29" y="600" type="line"/>
    </contour>
    <contour>
      <point x="99" y="495" type="line"/>
      <point x="243" y="587" type="line"/>
      <point x="230" y="600" type="line"/>
      <point x="86" y="508" type="line"/>
    </contour>
    <contour>
      <point x="224" y="530" type="line"/>
      <point x="244" y="530" type="line"/>
      <point x="244" y="600" type="line"/>
      <point x="224" y="600" type="line"/>
    </contour>
    <contour>
      <point x="362" y="300" type="line"/>
      <point x="377" y="311" type="line"/>
      <point x="325" y="395" type="line"/>
      <point x="312" y="382" type="line"/>
    </contour>
    <contour>
      <point x="357" y="90" type="line"/>
      <point x="377" y="90" type="line"/>
      <point x="377" y="510" type="line"/>
      <point x="357" y="510" type="line"/>
    </contour>
    <contour>
      <point x="302" y="530" type="line"/>
      <point x="322" y="530" type="line"/>
      <point x="322" y="600" type="line"/>
      <point x="302" y="600" type="line"/>
    </contour>
    <contour>
      <point x="359" y="495" type="line"/>
      <point x="372" y="508" type="line"/>
      <point x="315" y="600" type="line"/>
      <point x="302" y="587" type="line"/>
    </contour>
    <contour>
      <point x="374" y="495" type="line"/>
      <point x="521" y="587" type="line"/>
      <point x="508" y="600" type="line"/>
      <point x="361" y="508" type="line"/>
    </contour>
    <contour>
      <point x="307" y="580" type="line"/>
      <point x="522" y="580" type="line"/>
      <point x="522" y="600" type="line"/>
      <point x="307" y="600" type="line"/>
    </contour>
    <contour>
      <point x="7" y="452" type="line"/>
      <point x="22" y="462" type="line"/>
      <point x="21" y="544" type="line"/>
      <point x="7" y="533" type="line"/>
    </contour>
    <contour>
      <point x="5" y="371" type="line"/>
      <point x="24" y="371" type="line"/>
      <point x="24" y="544" type="line"/>
      <point x="5" y="544" type="line"/>
    </contour>
    <contour>
      <point x="7" y="463" type="line"/>
      <point x="7" y="382" type="line"/>
      <point x="21" y="371" type="line"/>
      <point x="22" y="453" type="line"/>
    </contour>
    <contour>
      <point x="45" y="544" type="line"/>
      <point x="7" y="544" type="line"/>
      <point x="7" y="523" type="line"/>
      <point x="45" y="523" type="line"/>
    </contour>
    <contour>
      <point x="89" y="467" type="line"/>
      <point x="5" y="467" type="line"/>
      <point x="5" y="448" type="line"/>
      <point x="89" y="448" type="line"/>
    </contour>
    <contour>
      <point x="45" y="392" type="line"/>
      <point x="7" y="392" type="line"/>
      <point x="7" y="371" type="line"/>
      <point x="45" y="371" type="line"/>
    </contour>
    <contour>
      <point x="77" y="454" type="line"/>
      <point x="89" y="464" type="line"/>
      <point x="45" y="544" type="line"/>
      <point x="29" y="533" type="line"/>
    </contour>
    <contour>
      <point x="77" y="461" type="line"/>
      <point x="29" y="382" type="line"/>
      <point x="45" y="371" type="line"/>
      <point x="89" y="451" type="line"/>
    </contour>
    <contour>
      <point x="522" y="0" type="line"/>
      <point x="522" y="380" type="line"/>
      <point x="502" y="380" type="line"/>
      <point x="502" y="0" type="line"/>
    </contour>
    <contour>
      <point x="457" y="452" type="line"/>
      <point x="539" y="533" type="line"/>
      <point x="525" y="544" type="line"/>
      <point x="442" y="462" type="line"/>
    </contour>
    <contour>
      <point x="541" y="371" type="line"/>
      <point x="541" y="544" type="line"/>
      <point x="522" y="544" type="line"/>
      <point x="522" y="371" type="line"/>
    </contour>
    <contour>
      <point x="457" y="463" type="line"/>
      <point x="442" y="453" type="line"/>
      <point x="525" y="371" type="line"/>
      <point x="539" y="382" type="line"/>
    </contour>
    <contour>
      <point x="501" y="544" type="line"/>
      <point x="501" y="523" type="line"/>
      <point x="539" y="523" type="line"/>
      <point x="539" y="544" type="line"/>
    </contour>
    <contour>
      <point x="370" y="467" type="line"/>
      <point x="370" y="448" type="line"/>
      <point x="459" y="448" type="line"/>
      <point x="459" y="467" type="line"/>
    </contour>
    <contour>
      <point x="501" y="392" type="line"/>
      <point x="501" y="371" type="line"/>
      <point x="539" y="371" type="line"/>
      <point x="539" y="392" type="line"/>
    </contour>
    <contour>
      <point x="382" y="454" type="line"/>
      <point x="517" y="533" type="line"/>
      <point x="501" y="544" type="line"/>
      <point x="370" y="464" type="line"/>
    </contour>
    <contour>
      <point x="382" y="461" type="line"/>
      <point x="370" y="451" type="line"/>
      <point x="501" y="371" type="line"/>
      <point x="517" y="382" type="line"/>
    </contour>
    <contour>
      <point x="89" y="467" type="line"/>
      <point x="89" y="448" type="line"/>
      <point x="370" y="448" type="line"/>
      <point x="370" y="467" type="line"/>
    </contour>
    <contour>
      <point x="105" y="454" type="line"/>
      <point x="243" y="531" type="line"/>
      <point x="227" y="542" type="line"/>
      <point x="89" y="464" type="line"/>
    </contour>
    <contour>
      <point x="105" y="461" type="line"/>
      <point x="89" y="451" type="line"/>
      <point x="227" y="373" type="line"/>
      <point x="243" y="384" type="line"/>
    </contour>
    <contour>
      <point x="319" y="542" type="line"/>
      <point x="227" y="542" type="line"/>
      <point x="227" y="523" type="line"/>
      <point x="319" y="523" type="line"/>
    </contour>
    <contour>
      <point x="319" y="392" type="line"/>
      <point x="227" y="392" type="line"/>
      <point x="227" y="373" type="line"/>
      <point x="329" y="373" type="line"/>
    </contour>
    <contour>
      <point x="354" y="454" type="line"/>
      <point x="370" y="464" type="line"/>
      <point x="319" y="542" type="line"/>
      <point x="303" y="531" type="line"/>
    </contour>
    <contour>
      <point x="354" y="461" type="line"/>
      <point x="303" y="384" type="line"/>
      <point x="319" y="373" type="line"/>
      <point x="370" y="451" type="line"/>
    </contour>
    <contour>
      <point x="24" y="530" type="line"/>
      <point x="44" y="530" type="line"/>
      <point x="44" y="600" type="line"/>
      <point x="24" y="600" type="line"/>
    </contour>
    <contour>
      <point x="502" y="530" type="line"/>
      <point x="522" y="530" type="line"/>
      <point x="522" y="600" type="line"/>
      <point x="502" y="600" type="line"/>
    </contour>
  </outline>
</glyph>
<glyph name="Lcaron" format="2">
  <advance width="410"/>
  <unicode hex="013D"/>
  <anchor x="180" y="0" name="bottom"/>
  <anchor x="120" y="300" name="center"/>
  <anchor x="120" y="600" name="top"/>
  <anchor x="305" y="600" name="topright"/>
  <outline>
    <contour>
      <point x="265" y="490" type="line"/>
      <point x="282" y="490" type="line"/>
      <point x="282" y="594" type="line"/>
      <point x="265" y="594" type="line"/>
    </contour>
    <contour>
      <point x="268" y="592" type="line"/>
      <point x="276" y="557" type="line"/>
      <point x="290" y="565" type="line"/>
      <point x="282" y="600" type="line"/>
    </contour>
    <contour>
      <point x="268" y="490" type="line"/>
      <point x="319" y="490" type="line"/>
      <point x="323" y="506" type="line"/>
      <point x="273" y="506" type="line"/>
    </contour>
    <contour>
      <point x="267" y="497" type="line"/>
      <point x="283" y="497" type="line"/>
      <point x="294" y="570" type="line"/>
      <point x="278" y="570" type="line"/>
    </contour>
    <contour>
      <point x="265" y="587" type="line"/>
      <point x="362" y="587" type="line"/>
      <point x="362" y="600" type="line"/>
      <point x="265" y="600" type="line"/>
    </contour>
    <contour>
      <point x="305" y="490" type="line"/>
      <point x="324" y="490" type="line"/>
      <point x="379" y="600" type="line"/>
      <point x="359" y="600" type="line"/>
    </contour>
    <contour>
      <point x="276" y="563" type="line"/>
      <point x="285" y="552" type="line"/>
      <point x="361" y="590" type="line"/>
      <point x="350" y="600" type="line"/>
    </contour>
    <component base="L"/>
  </outline>
</glyph>
<glyph name="Lslash" format="2">
  <advance width="435"/>
  <unicode hex="0141"/>
  <outline>
    <contour>
      <point x="43" y="0" type="line"/>
      <point x="104" y="89" type="line"/>
      <point x="91" y="102" type="line"/>
      <point x="30" y="13" type="line"/>
    </contour>
    <contour>
      <point x="30" y="0" type="line"/>
      <point x="50" y="0" type="line"/>
      <point x="50" y="215" type="line"/>
      <point x="30" y="208" type="line"/>
    </contour>
    <contour>
      <point x="89" y="97" type="line"/>
      <point x="109" y="97" type="line"/>
      <point x="109" y="511" type="line"/>
      <point x="89" y="511" type="line"/>
    </contour>
    <contour>
      <point x="91" y="496" type="line"/>
      <point x="104" y="509" type="line"/>
      <point x="43" y="600" type="line"/>
      <point x="30" y="587" type="line"/>
    </contour>
    <contour>
      <point x="231" y="172" type="line"/>
      <point x="251" y="172" type="line"/>
      <point x="251" y="283" type="line"/>
      <point x="231" y="275" type="line"/>
    </contour>
    <contour>
      <point x="40" y="0" type="line"/>
      <point x="423" y="0" type="line"/>
      <point x="423" y="20" type="line"/>
      <point x="40" y="20" type="line"/>
    </contour>
    <contour>
      <point x="110" y="95" type="line"/>
      <point x="250" y="165" type="line"/>
      <point x="237" y="180" type="line"/>
      <point x="95" y="106" type="line"/>
    </contour>
    <contour>
      <point x="95" y="87" type="line"/>
      <point x="280" y="87" type="line"/>
      <point x="280" y="107" type="line"/>
      <point x="95" y="107" type="line"/>
    </contour>
    <contour>
      <point x="237" y="160" type="line"/>
      <point x="420" y="160" type="line"/>
      <point x="420" y="180" type="line"/>
      <point x="237" y="180" type="line"/>
    </contour>
    <contour>
      <point x="409" y="9" type="line"/>
      <point x="423" y="22" type="line"/>
      <point x="275" y="107" type="line"/>
      <point x="259" y="95" type="line"/>
    </contour>
    <contour>
      <point x="277" y="87" type="line"/>
      <point x="423" y="165" type="line"/>
      <point x="410" y="180" type="line"/>
      <point x="260" y="96" type="line"/>
    </contour>
    <contour>
      <point x="410" y="0" type="line"/>
      <point x="430" y="0" type="line"/>
      <point x="430" y="180" type="line"/>
      <point x="410" y="180" type="line"/>
    </contour>
    <contour>
      <point x="40" y="600" type="line"/>
      <point x="40" y="580" type="line"/>
      <point x="251" y="580" type="line"/>
      <point x="251" y="600" type="line"/>
    </contour>
    <contour>
      <point x="237" y="593" type="line"/>
      <point x="90" y="509" type="line"/>
      <point x="103" y="496" type="line"/>
      <point x="248" y="577" type="line"/>
    </contour>
    <contour>
      <point x="30" y="358" type="line"/>
      <point x="50" y="358" type="line"/>
      <point x="50" y="600" type="line"/>
      <point x="30" y="600" type="line"/>
    </contour>
    <contour>
      <point x="348" y="460" type="line"/>
      <point x="348" y="309" type="line"/>
      <point x="365" y="309" type="line"/>
      <point x="365" y="460" type="line"/>
    </contour>
    <contour>
      <point x="12" y="289" type="line"/>
      <point x="236" y="369" type="line"/>
      <point x="235" y="388" type="line"/>
      <point x="12" y="309" type="line"/>
    </contour>
    <contour>
      <point x="217" y="373" type="line"/>
      <point x="351" y="309" type="line"/>
      <point x="363" y="323" type="line"/>
      <point x="230" y="385" type="line"/>
    </contour>
    <contour>
      <point x="220" y="383" type="line"/>
      <point x="233" y="366" type="line"/>
      <point x="363" y="454" type="line"/>
      <point x="349" y="464" type="line"/>
    </contour>
    <contour>
      <point x="365" y="475" type="line"/>
      <point x="235" y="422" type="line"/>
      <point x="235" y="405" type="line"/>
      <point x="365" y="458" type="line"/>
    </contour>
    <contour>
      <point x="365" y="329" type="line"/>
      <point x="232" y="285" type="line"/>
      <point x="232" y="265" type="line"/>
      <point x="365" y="309" type="line"/>
    </contour>
    <contour>
      <point x="231" y="412" type="line"/>
      <point x="251" y="412" type="line"/>
      <point x="251" y="600" type="line"/>
      <point x="231" y="600" type="line"/>
    </contour>
    <contour>
      <point x="105" y="304" type="line"/>
      <point x="239" y="264" type="line"/>
      <point x="254" y="279" type="line"/>
      <point x="108" y="323" type="line"/>
    </contour>
    <contour>
      <point x="95" y="344" type="line"/>
      <point x="108" y="331" type="line"/>
      <point x="257" y="416" type="line"/>
      <point x="241" y="429" type="line"/>
    </contour>
    <contour>
      <point x="22" y="203" type="line"/>
      <point x="22" y="354" type="line"/>
      <point x="5" y="354" type="line"/>
      <point x="5" y="203" type="line"/>
    </contour>
    <contour>
      <point x="22" y="304" type="line"/>
      <point x="22" y="354" type="line"/>
      <point x="5" y="354" type="line"/>
      <point x="5" y="293" type="line"/>
    </contour>
    <contour>
      <point x="20" y="304" type="line"/>
      <point x="5" y="312" type="line"/>
      <point x="5" y="209" type="line"/>
      <point x="20" y="199" type="line"/>
    </contour>
    <contour>
      <point x="5" y="188" type="line"/>
      <point x="47" y="205" type="line"/>
      <point x="47" y="226" type="line"/>
      <point x="5" y="209" type="line"/>
    </contour>
    <contour>
      <point x="5" y="334" type="line"/>
      <point x="46" y="343" type="line"/>
      <point x="46" y="366" type="line"/>
      <point x="5" y="354" type="line"/>
    </contour>
    <contour>
      <point x="96" y="343" type="line"/>
      <point x="46" y="363" type="line"/>
      <point x="31" y="344" type="line"/>
      <point x="93" y="324" type="line"/>
    </contour>
    <contour>
      <point x="105" y="307" type="line"/>
      <point x="92" y="320" type="line"/>
      <point x="30" y="215" type="line"/>
      <point x="44" y="202" type="line"/>
    </contour>
  </outline>
</glyph>
<glyph name="Eng" format="2">
  <advance width="581"/>
  <unicode hex="014A"/>
  <outline>
    <contour>
      <point x="10" y="0" type="line"/>
      <point x="30" y="0" type="line"/>
      <point x="30" y="600" type="line"/>
      <point x="10" y="600" type="line"/>
    </contour>
    <contour>
      <point x="172" y="0" type="line"/>
      <point x="192" y="0" type="line"/>
      <point x="192" y="337" type="line"/>
      <point x="172" y="375" type="line"/>
    </contour>
    <contour>
      <point x="551" y="-64" type="line"/>
      <point x="571" y="-64" type="line"/>
      <point x="571" y="600" type="line"/>
      <point x="551" y="600" type="line"/>
    </contour>
    <contour>
      <point x="425" y="92" type="line"/>
      <point x="445" y="83" type="line"/>
      <point x="445" y="549" type="line"/>
      <point x="425" y="549" type="line"/>
    </contour>
    <contour>
      <point x="555" y="18" type="line"/>
      <point x="565" y="34" type="line"/>
      <point x="394" y="122" type="line"/>
      <point x="387" y="104" type="line"/>
    </contour>
    <contour>
      <point x="347" y="0" type="line"/>
      <point x="405" y="110" type="line"/>
      <point x="391" y="122" type="line"/>
      <point x="335" y="16" type="line"/>
    </contour>
    <contour>
      <point x="24" y="9" type="line"/>
      <point x="73" y="90" type="line"/>
      <point x="60" y="103" type="line"/>
      <point x="11" y="22" type="line"/>
    </contour>
    <contour>
      <point x="179" y="11" type="line"/>
      <point x="191" y="25" type="line"/>
      <point x="63" y="102" type="line"/>
      <point x="52" y="88" type="line"/>
    </contour>
    <contour>
      <point x="333" y="0" type="line"/>
      <point x="352" y="8" type="line"/>
      <point x="81" y="589" type="line"/>
      <point x="63" y="581" type="line"/>
    </contour>
    <contour>
      <point x="11" y="0" type="line"/>
      <point x="192" y="0" type="line"/>
      <point x="192" y="20" type="line"/>
      <point x="11" y="20" type="line"/>
    </contour>
    <contour>
      <point x="10" y="580" type="line"/>
      <point x="271" y="580" type="line"/>
      <point x="271" y="600" type="line"/>
      <point x="10" y="600" type="line"/>
    </contour>
    <contour>
      <point x="126" y="538" type="line"/>
      <point x="275" y="582" type="line"/>
      <point x="259" y="597" type="line"/>
      <point x="115" y="553" type="line"/>
    </contour>
    <contour>
      <point x="400" y="332" type="line"/>
      <point x="402" y="369" type="line"/>
      <point x="271" y="600" type="line"/>
      <point x="253" y="593" type="line"/>
    </contour>
    <contour>
      <point x="388" y="109" type="line"/>
      <point x="408" y="113" type="line"/>
      <point x="408" y="600" type="line"/>
      <point x="388" y="600" type="line"/>
    </contour>
    <contour>
      <point x="51" y="83" type="line"/>
      <point x="71" y="83" type="line"/>
      <point x="71" y="582" type="line"/>
      <point x="51" y="582" type="line"/>
    </contour>
    <contour>
      <point x="390" y="580" type="line"/>
      <point x="571" y="580" type="line"/>
      <point x="571" y="600" type="line"/>
      <point x="390" y="600" type="line"/>
    </contour>
    <contour>
      <point x="437" y="534" type="line"/>
      <point x="568" y="581" type="line"/>
      <point x="559" y="596" type="line"/>
      <point x="427" y="552" type="line"/>
    </contour>
    <contour>
      <point x="356" y="38" type="line"/>
      <point x="369" y="58" type="line"/>
      <point x="128" y="554" type="line"/>
      <point x="110" y="546" type="line"/>
    </contour>
    <contour>
      <point x="117" y="538" type="line"/>
      <point x="128" y="553" type="line"/>
      <point x="69" y="599" type="line"/>
      <point x="58" y="584" type="line"/>
    </contour>
    <contour>
      <point x="434" y="529" type="line"/>
      <point x="444" y="547" type="line"/>
      <point x="400" y="599" type="line"/>
      <point x="390" y="580" type="line"/>
    </contour>
    <contour>
      <point x="403" y="-200" type="line"/>
      <point x="571" y="-64" type="line"/>
      <point x="557" y="-50" type="line"/>
      <point x="387" y="-186" type="line"/>
    </contour>
    <contour>
      <point x="255" y="-200" type="line"/>
      <point x="403" y="-200" type="line"/>
      <point x="401" y="-182" type="line"/>
      <point x="255" y="-182" type="line"/>
    </contour>
    <contour>
      <point x="255" y="-200" type="line"/>
      <point x="275" y="-200" type="line"/>
      <point x="275" y="-55" type="line"/>
      <point x="255" y="-55" type="line"/>
    </contour>
    <contour>
      <point x="277" y="-196" type="line"/>
      <point x="337" y="-118" type="line"/>
      <point x="323" y="-107" type="line"/>
      <point x="265" y="-181" type="line"/>
    </contour>
    <contour>
      <point x="389" y="-191" type="line"/>
      <point x="406" y="-182" type="line"/>
      <point x="334" y="-114" type="line"/>
      <point x="317" y="-123" type="line"/>
    </contour>
    <contour>
      <point x="256" y="-75" type="line"/>
      <point x="315" y="-75" type="line"/>
      <point x="315" y="-55" type="line"/>
      <point x="256" y="-55" type="line"/>
    </contour>
    <contour>
      <point x="319" y="-126" type="line"/>
      <point x="336" y="-117" type="line"/>
      <point x="317" y="-56" type="line"/>
      <point x="300" y="-65" type="line"/>
    </contour>
    <contour>
      <point x="317" y="-74" type="line"/>
      <point x="352" y="-26" type="line"/>
      <point x="338" y="-11" type="line"/>
      <point x="303" y="-59" type="line"/>
    </contour>
    <contour>
      <point x="330" y="-128" type="line"/>
      <point x="411" y="-39" type="line"/>
      <point x="397" y="-25" type="line"/>
      <point x="316" y="-114" type="line"/>
    </contour>
    <contour>
      <point x="394" y="-41" type="line"/>
      <point x="400" y="-22" type="line"/>
      <point x="338" y="-9" type="line"/>
      <point x="332" y="-28" type="line"/>
    </contour>
    <contour>
      <point x="389" y="-41" type="line"/>
      <point x="565" y="-68" type="line"/>
      <point x="571" y="-51" type="line"/>
      <point x="395" y="-24" type="line"/>
    </contour>
    <contour>
      <point x="332" y="-26" type="line"/>
      <point x="352" y="-26" type="line"/>
      <point x="352" y="8" type="line"/>
      <point x="332" y="8" type="line"/>
    </contour>
    <contour>
      <point x="391" y="-39" type="line"/>
      <point x="411" y="-39" type="line"/>
      <point x="411" y="104" type="line"/>
      <point x="391" y="104" type="line"/>
    </contour>
  </outline>
</glyph>
<glyph name="quoteright" format="2">
  <advance width="192"/>
  <unicode hex="2019"/>
  <outline>
    <contour>
      <point x="30" y="468" type="line"/>
      <point x="162" y="468" type="line"/>
      <point x="162" y="482" type="line"/>
      <point x="30" y="482" type="line"/>
    </contour>
    <contour>
      <point x="41" y="468" type="line"/>
      <point x="60" y="523" type="line"/>
      <point x="53" y="539" type="line"/>
      <point x="30" y="479" type="line"/>
    </contour>
    <contour>
      <point x="150" y="468" type="line"/>
      <point x="162" y="479" type="line"/>
      <point x="62" y="540" type="line"/>
      <point x="55" y="524" type="line"/>
    </contour>
    <contour>
      <point x="30" y="468" type="line"/>
      <point x="46" y="468" type="line"/>
      <point x="46" y="600" type="line"/>
      <point x="30" y="600" type="line"/>
    </contour>
    <contour>
      <point x="53" y="527" type="line"/>
      <point x="63" y="527" type="line"/>
      <point x="63" y="540" type="line"/>
      <point x="53" y="540" type="line"/>
    </contour>
    <contour>
      <point x="146" y="468" type="line"/>
      <point x="162" y="468" type="line"/>
      <point x="162" y="600" type="line"/>
      <point x="146" y="600" type="line"/>
    </contour>
    <contour>
      <point x="54" y="528" type="line"/>
      <point x="61" y="544" type="line"/>
      <point x="41" y="600" type="line"/>
      <point x="30" y="588" type="line"/>
    </contour>
    <contour>
      <point x="32" y="585" type="line"/>
      <point x="162" y="585" type="line"/>
      <point x="162" y="600" type="line"/>
      <point x="32" y="600" type="line"/>
    </contour>
    <contour>
      <point x="62" y="528" type="line"/>
      <point x="161" y="588" type="line"/>
      <point x="150" y="600" type="line"/>
      <point x="55" y="544" type="line"/>
    </contour>
    <contour>
      <point x="30" y="366" type="line"/>
      <point x="46" y="366" type="line"/>
      <point x="46" y="430" type="line"/>
      <point x="30" y="432" type="line"/>
    </contour>
    <contour>
      <point x="40" y="420" type="line"/>
      <point x="93" y="468" type="line"/>
      <point x="79" y="479" type="line"/>
      <point x="30" y="432" type="line"/>
    </contour>
    <contour>
      <point x="42" y="356" type="line"/>
      <point x="162" y="468" type="line"/>
      <point x="151" y="480" type="line"/>
      <point x="30" y="367" type="line"/>
      <point x="30" y="356" type="line"/>
    </contour>
  </outline>
</glyph>
<glyph name="quotedblleft" format="2">
  <advance width="342"/>
  <unicode hex="201C"/>
  <outline>
    <contour>
      <point x="312" y="503" type="line"/>
      <point x="180" y="503" type="line"/>
      <point x="180" y="489" type="line"/>
      <point x="312" y="489" type="line"/>
    </contour>
    <contour>
      <point x="301" y="503" type="line"/>
      <point x="207" y="448" type="line"/>
      <point x="214" y="432" type="line"/>
      <point x="312" y="492" type="line"/>
    </contour>
    <contour>
      <point x="192" y="503" type="line"/>
      <point x="180" y="492" type="line"/>
      <point x="205" y="431" type="line"/>
      <point x="212" y="447" type="line"/>
    </contour>
    <contour>
      <point x="312" y="503" type="line"/>
      <point x="296" y="503" type="line"/>
      <point x="296" y="371" type="line"/>
      <point x="312" y="371" type="line"/>
    </contour>
    <contour>
      <point x="214" y="444" type="line"/>
      <point x="204" y="444" type="line"/>
      <point x="204" y="431" type="line"/>
      <point x="214" y="431" type="line"/>
    </contour>
    <contour>
      <point x="196" y="503" type="line"/>
      <point x="180" y="503" type="line"/>
      <point x="180" y="371" type="line"/>
      <point x="196" y="371" type="line"/>
    </contour>
    <contour>
      <point x="213" y="443" type="line"/>
      <point x="206" y="427" type="line"/>
      <point x="301" y="371" type="line"/>
      <point x="312" y="383" type="line"/>
    </contour>
    <contour>
      <point x="310" y="386" type="line"/>
      <point x="180" y="386" type="line"/>
      <point x="180" y="371" type="line"/>
      <point x="310" y="371" type="line"/>
    </contour>
    <contour>
      <point x="205" y="443" type="line"/>
      <point x="181" y="383" type="line"/>
      <point x="192" y="371" type="line"/>
      <point x="212" y="427" type="line"/>
    </contour>
    <contour>
      <point x="312" y="605" type="line"/>
      <point x="296" y="605" type="line"/>
      <point x="296" y="541" type="line"/>
      <point x="312" y="539" type="line"/>
    </contour>
    <contour>
      <point x="302" y="551" type="line"/>
      <point x="249" y="503" type="line"/>
      <point x="263" y="492" type="line"/>
      <point x="312" y="539" type="line"/>
    </contour>
    <contour>
      <point x="300" y="615" type="line"/>
      <point x="180" y="503" type="line"/>
      <point x="191" y="491" type="line"/>
      <point x="312" y="604" type="line"/>
      <point x="312" y="615" type="line"/>
    </contour>
    <contour>
      <point x="162" y="503" type="line"/>
      <point x="30" y="503" type="line"/>
      <point x="30" y="489" type="line"/>
      <point x="162" y="489" type="line"/>
    </contour>
    <contour>
      <point x="151" y="503" type="line"/>
      <point x="57" y="448" type="line"/>
      <point x="64" y="432" type="line"/>
      <point x="162" y="492" type="line"/>
    </contour>
    <contour>
      <point x="42" y="503" type="line"/>
      <point x="30" y="492" type="line"/>
      <point x="55" y="431" type="line"/>
      <point x="62" y="447" type="line"/>
    </contour>
    <contour>
      <point x="162" y="503" type="line"/>
      <point x="146" y="503" type="line"/>
      <point x="146" y="371" type="line"/>
      <point x="162" y="371" type="line"/>
    </contour>
    <contour>
      <point x="64" y="444" type="line"/>
      <point x="54" y="444" type="line"/>
      <point x="54" y="431" type="line"/>
      <point x="64" y="431" type="line"/>
    </contour>
    <contour>
      <point x="46" y="503" type="line"/>
      <point x="30" y="503" type="line"/>
      <point x="30" y="371" type="line"/>
      <point x="46" y="371" type="line"/>
    </contour>
    <contour>
      <point x="63" y="443" type="line"/>
      <point x="56" y="427" type="line"/>
      <point x="151" y="371" type="line"/>
      <point x="162" y="383" type="line"/>
    </contour>
    <contour>
      <point x="160" y="386" type="line"/>
      <point x="30" y="386" type="line"/>
      <point x="30" y="371" type="line"/>
      <point x="160" y="371" type="line"/>
    </contour>
    <contour>
      <point x="55" y="443" type="line"/>
      <point x="31" y="383" type="line"/>
      <point x="42" y="371" type="line"/>
      <point x="62" y="427" type="line"/>
    </contour>
    <contour>
      <point x="162" y="605" type="line"/>
      <point x="146" y="605" type="line"/>
      <point x="146" y="541" type="line"/>
      <point x="162" y="539" type="line"/>
    </contour>
    <contour>
      <point x="152" y="551" type="line"/>
      <point x="99" y="503" type="line"/>
      <point x="113" y="492" type="line"/>
      <point x="162" y="539" type="line"/>
    </contour>
    <contour>
      <point x="150" y="615" type="line"/>
      <point x="30" y="503" type="line"/>
      <point x="41" y="491" type="line"/>
      <point x="162" y="604" type="line"/>
      <point x="162" y="615" type="line"/>
    </contour>
  </outline>
</glyph>
